<svg width="48" height="48" viewBox="0 0 48 48" fill="none" xmlns="http://www.w3.org/2000/svg">
<g clip-path="url(#clip0_44_248)">
<path d="M13.6395 0.57605C6.40181 0.57605 0.573242 6.40195 0.573242 13.6423V34.3612C0.573242 41.5989 6.39914 47.4275 13.6395 47.4275H34.3584C41.5961 47.4275 47.4247 41.5989 47.4247 34.3612V13.6423C47.4247 6.40462 41.5961 0.57605 34.3584 0.57605H13.6395ZM23.9972 13.6423C24.6213 13.6397 25.2214 13.8888 25.6633 14.328C26.1053 14.77 26.3517 15.3673 26.3544 15.9915V21.6486H32.0062C33.3026 21.6513 34.3553 22.7013 34.3553 24.0004C34.3553 25.2968 33.3026 26.3495 32.0062 26.3495H26.3544V32.0093C26.3544 32.6334 26.1053 33.2307 25.6633 33.6727C25.2214 34.1147 24.6214 34.3611 23.9972 34.3611C22.6982 34.3584 21.6454 33.3057 21.6454 32.0093V26.3522H15.9937V26.3495C15.3695 26.3522 14.7723 26.1058 14.3302 25.6638C13.8883 25.2218 13.6392 24.6245 13.6392 24.0004C13.6392 23.3762 13.8883 22.7762 14.3302 22.337C14.7722 21.895 15.3695 21.6486 15.9937 21.6486H21.6454V15.9914C21.6481 14.695 22.6982 13.6423 23.9972 13.6423Z" fill="white"/>
</g>
<defs>
<clipPath id="clip0_44_248">
<rect width="48" height="48" fill="white"/>
</clipPath>
</defs>
</svg>
