<svg width="20" height="20" viewBox="0 0 20 20" fill="none" xmlns="http://www.w3.org/2000/svg">
<g clip-path="url(#clip0_96_265)">
<path fill-rule="evenodd" clip-rule="evenodd" d="M7.92489 0.0915527C6.53389 0.0915527 5.43147 0.0915528 4.55025 0.181111C3.64896 0.272575 2.89533 0.465038 2.23698 0.905209C1.71011 1.25772 1.25757 1.71028 0.905056 2.23714C0.464886 2.89548 0.272422 3.64911 0.180959 4.55041C0.0914002 5.4317 0.0914001 6.53402 0.0914001 7.92504V12.0753C0.0914001 13.4663 0.0914002 14.5687 0.180959 15.4499C0.272422 16.3512 0.464886 17.1048 0.905056 17.7632C1.25757 18.2901 1.71013 18.7426 2.23698 19.0951C2.89533 19.5353 3.64896 19.7278 4.55025 19.8192C5.43155 19.9088 6.53386 19.9088 7.92489 19.9088H12.0751C13.4661 19.9088 14.5685 19.9088 15.4498 19.8192C16.3511 19.7278 17.1047 19.5353 17.763 19.0951C18.2899 18.7426 18.7425 18.29 19.095 17.7632C19.5351 17.1048 19.7276 16.3512 19.8191 15.4499C19.9086 14.5686 19.9086 13.4663 19.9086 12.0753V7.92504C19.9086 6.53404 19.9086 5.43162 19.8191 4.55041C19.7276 3.64911 19.5351 2.89548 19.095 2.23714C18.7425 1.71026 18.2899 1.25772 17.763 0.905209C17.1047 0.465038 16.3511 0.272575 15.4498 0.181111C14.5685 0.0915528 13.4662 0.0915527 12.0751 0.0915527H7.92489ZM10.7622 5.93472C10.7622 5.51455 10.4211 5.17253 10 5.17253C9.57889 5.17253 9.23781 5.51455 9.23781 5.93472V15.0811C9.23781 15.5022 9.57889 15.8433 10 15.8433C10.4211 15.8433 10.7622 15.5022 10.7622 15.0811V5.93472ZM6.69684 8.98351C6.69684 8.56334 6.35576 8.22131 5.93464 8.22131C5.51447 8.22131 5.17245 8.56334 5.17245 8.98351V15.0811C5.17245 15.5022 5.51447 15.8433 5.93464 15.8433C6.35576 15.8433 6.69684 15.5022 6.69684 15.0811V8.98351ZM14.8276 12.0323C14.8276 11.6121 14.4855 11.2701 14.0654 11.2701C13.6443 11.2701 13.3032 11.6121 13.3032 12.0323V15.0811C13.3032 15.5022 13.6443 15.8433 14.0654 15.8433C14.4855 15.8433 14.8276 15.5022 14.8276 15.0811V12.0323Z" fill="#65AB1F"/>
</g>
<defs>
<clipPath id="clip0_96_265">
<rect width="20" height="20" fill="white"/>
</clipPath>
</defs>
</svg>
