<svg width="32" height="26" viewBox="0 0 27 22" fill="none" xmlns="http://www.w3.org/2000/svg">
<g clip-path="url(#clip0_98_57)">
<path d="M4.34448 19.8274V21.4671C4.3449 21.5258 4.35927 21.5836 4.38639 21.6356C4.41351 21.6875 4.45259 21.7322 4.50037 21.7659C4.54815 21.7995 4.60323 21.8212 4.66101 21.829C4.71879 21.8368 4.7776 21.8306 4.8325 21.8108C7.51437 20.998 10.3045 20.6061 13.1049 20.649C16.5176 20.649 19.589 21.1508 21.7868 21.9586C21.8417 21.9784 21.9005 21.9846 21.9583 21.9768C22.0161 21.969 22.0711 21.9474 22.1189 21.9137C22.1667 21.88 22.2058 21.8354 22.2329 21.7834C22.26 21.7314 22.2744 21.6736 22.2748 21.6149V19.8274C19.9644 18.9508 16.7087 18.4524 13.3096 18.4524C9.91059 18.4524 6.65829 18.9508 4.34448 19.8274Z" fill="#FF8935"/>
<path d="M17.2649 11.9831L13.5109 4.05277L13.3096 3.61621L13.1048 4.05277L8.98566 12.7634L2.38892 6.95402L4.20106 18.2978C6.6582 17.435 9.86273 16.9675 13.3027 16.9675C16.7427 16.9675 19.9438 17.435 22.401 18.2978L24.22 6.95402L17.6369 12.7634L17.2649 11.9831Z" fill="#FF8935"/>
<path d="M13.3096 3.15551C14.1691 3.15551 14.8658 2.45372 14.8658 1.58801C14.8658 0.722302 14.1691 0.0205078 13.3096 0.0205078C12.4501 0.0205078 11.7534 0.722302 11.7534 1.58801C11.7534 2.45372 12.4501 3.15551 13.3096 3.15551Z" fill="#FF8935"/>
<path d="M2.86328 5.03239C2.86396 4.78054 2.79039 4.53417 2.6519 4.32448C2.51342 4.1148 2.31624 3.95125 2.08538 3.85455C1.85451 3.75786 1.60034 3.73239 1.35509 3.78135C1.10983 3.83032 0.884524 3.95152 0.707727 4.1296C0.53093 4.30769 0.4106 4.53463 0.361988 4.78167C0.313375 5.02871 0.338668 5.28472 0.434662 5.51727C0.530655 5.74981 0.693027 5.94842 0.901199 6.08791C1.10937 6.2274 1.35397 6.30151 1.604 6.30083C1.93798 6.30083 2.25829 6.16719 2.49445 5.92931C2.73061 5.69143 2.86328 5.3688 2.86328 5.03239Z" fill="#FF8935"/>
<path d="M25.0151 6.30449C25.7125 6.30449 26.2778 5.73505 26.2778 5.03262C26.2778 4.33018 25.7125 3.76074 25.0151 3.76074C24.3178 3.76074 23.7524 4.33018 23.7524 5.03262C23.7524 5.73505 24.3178 6.30449 25.0151 6.30449Z" fill="#FF8935"/>
</g>
<defs>
<clipPath id="clip0_98_57">
<rect width="32" height="26" fill="white"/>
</clipPath>
</defs>
</svg>
