<svg width="76" height="63" viewBox="0 0 76 63" fill="none" xmlns="http://www.w3.org/2000/svg">
<g clip-path="url(#clip0_41_88)">
<path d="M28.0131 21.5087H28.7969C29.6281 21.5087 30.3169 22.1856 30.3169 23.0287C30.3169 23.6699 30.8394 24.1924 31.4806 24.1924C32.1219 24.1924 32.6444 23.6699 32.6444 23.0287C32.6444 20.9149 30.9225 19.1931 28.8088 19.1931H28.025C25.9113 19.1931 24.1894 20.9149 24.1894 23.0287V27.7431C24.1894 29.8568 25.9113 31.5787 28.025 31.5787H28.8088C30.9225 31.5787 32.6444 29.8568 32.6444 27.7431V26.9237C32.6444 26.2824 32.1219 25.7599 31.4806 25.7599C30.8394 25.7599 30.3169 26.2824 30.3169 26.9237V27.7431C30.3169 28.5743 29.64 29.2631 28.7969 29.2631H28.0131C27.1819 29.2631 26.4931 28.5862 26.4931 27.7431V23.0287C26.4931 22.1856 27.17 21.5087 28.0131 21.5087ZM38.19 19.1812H34.9244C34.2831 19.1812 33.7606 19.7037 33.7606 20.3449V30.4031C33.7606 31.0443 34.2831 31.5668 34.9244 31.5668C35.5656 31.5668 36.0881 31.0443 36.0881 30.4031V27.1731H38.19C39.2588 27.1731 40.2563 26.7574 41.0163 25.9974C41.7763 25.2374 42.1919 24.2399 42.1919 23.1712C42.1919 20.9743 40.3988 19.1812 38.19 19.1812ZM36.0881 21.5087H38.19C39.1163 21.5087 39.8644 22.2568 39.8644 23.1831C39.8644 23.6343 39.6863 24.0499 39.3775 24.3706C39.0569 24.6912 38.6413 24.8574 38.19 24.8574H36.0881V21.5087ZM50.6588 18.4449C50.0175 18.4449 49.495 18.9674 49.495 19.6087V27.2799C49.495 28.3724 48.6044 29.2631 47.5119 29.2631C46.4194 29.2631 45.5288 28.3724 45.5288 27.2799V19.6087C45.5288 18.9674 45.0063 18.4449 44.365 18.4449C43.7238 18.4449 43.2013 18.9674 43.2013 19.6087V27.2799C43.2013 29.6549 45.125 31.5787 47.5 31.5787C49.875 31.5787 51.7988 29.6549 51.7988 27.2799V19.6087C51.8225 18.9556 51.3 18.4449 50.6588 18.4449Z" fill="#463487"/>
<path d="M74.5038 23.8125H56.8456V21.3425H61.6075C62.2488 21.3425 62.7713 20.82 62.7713 20.1787C62.7713 19.5375 62.2488 19.015 61.6075 19.015H56.8456V16.735H61.18C61.4888 16.735 61.7738 16.6162 61.9875 16.4025L69.6944 8.87373C70.3119 9.2181 71.0244 9.40811 71.7487 9.40811C74.1 9.40811 76 7.49623 76 5.14498C76 2.79373 74.0881 0.893728 71.7487 0.893728C69.3975 0.893728 67.4856 2.8056 67.4856 5.14498C67.4856 5.90498 67.6875 6.61748 68.0556 7.24685L60.7169 14.4075H56.8456V10.3462C56.8456 8.1731 55.0762 6.40373 52.9031 6.40373H48.5925V2.54435L55.765 -4.7944C56.4062 -4.42627 57.1069 -4.2244 57.855 -4.2244C60.2063 -4.2244 62.1181 -6.13627 62.1181 -8.47565C62.1181 -10.8269 60.2063 -12.7388 57.855 -12.7388C55.5037 -12.7388 53.6037 -10.8269 53.6037 -8.47565C53.6037 -7.75127 53.7938 -7.05064 54.1263 -6.44502L46.5975 1.2856C46.3956 1.51123 46.2887 1.79623 46.2887 2.08123V6.41561H44.0088V1.6656C44.0088 1.02435 43.4863 0.501854 42.845 0.501854C42.2038 0.501854 41.6812 1.02435 41.6812 1.6656V6.41561H39.2113V-11.2544C39.2113 -11.8956 38.6888 -12.4181 38.0475 -12.4181C37.4062 -12.4181 36.8838 -11.8956 36.8838 -11.2544V6.41561H34.4137V1.6656C34.4137 1.02435 33.8913 0.501854 33.25 0.501854C32.6087 0.501854 32.0863 1.02435 32.0863 1.6656V6.41561H29.8062V-1.9919C31.6588 -2.50252 33.0125 -4.21252 33.0125 -6.18377C33.0125 -8.5944 31.0531 -10.5419 28.6544 -10.5419C26.2437 -10.5419 24.2844 -8.58252 24.2844 -6.18377C24.2844 -4.20065 25.6619 -2.47877 27.4906 -1.9919V6.41561H23.0969C20.9237 6.41561 19.1544 8.18498 19.1544 10.3581V14.4194H15.295L7.95625 7.24685C8.32438 6.61748 8.51437 5.90498 8.51437 5.15685C8.51437 2.8056 6.6025 0.905603 4.26312 0.905603C1.91187 0.893729 0 2.8056 0 5.15685C0 7.5081 1.91187 9.41998 4.25125 9.41998C4.97563 9.41998 5.67625 9.22998 6.29375 8.8856L14.0006 16.4144C14.2144 16.6281 14.5113 16.7469 14.8081 16.7469H19.1425V19.0269H14.3925C13.7513 19.0269 13.2288 19.5494 13.2288 20.1906C13.2288 20.8319 13.7513 21.3544 14.3925 21.3544H19.1425V23.8125H1.48438C0.843125 23.8125 0.320625 24.335 0.320625 24.9762C0.320625 25.6175 0.843125 26.14 1.48438 26.14H19.1544V28.61H14.4044C13.7631 28.61 13.2406 29.1325 13.2406 29.7737C13.2406 30.415 13.7631 30.9375 14.4044 30.9375H19.1544V33.2175H10.7588C10.2363 31.3531 8.52625 29.9993 6.56688 29.9993C4.15625 29.9993 2.19688 31.9587 2.19688 34.3694C2.19688 36.78 4.15625 38.7393 6.56688 38.7393C8.53813 38.7393 10.2481 37.3737 10.7588 35.5212H19.1544V39.6537C19.1544 41.8268 20.9237 43.5962 23.0969 43.5962H27.4906V52.0037C25.6381 52.5144 24.2844 54.2243 24.2844 56.1956C24.2844 58.6062 26.2437 60.5656 28.6544 60.5656C31.065 60.5656 33.0125 58.6062 33.0125 56.1956C33.0125 54.2125 31.6469 52.4906 29.8062 52.0037V43.5962H32.0863V48.3462C32.0863 48.9875 32.6087 49.51 33.25 49.51C33.8913 49.51 34.4137 48.9875 34.4137 48.3462V43.5962H36.8838V61.2662C36.8838 61.9075 37.4062 62.43 38.0475 62.43C38.6888 62.43 39.2113 61.9075 39.2113 61.2662V43.5962H41.6812V48.3462C41.6812 48.9875 42.2038 49.51 42.845 49.51C43.4863 49.51 44.0088 48.9875 44.0088 48.3462V43.5962H46.2887V47.9306C46.2887 48.2393 46.4075 48.5243 46.6212 48.7381L54.15 56.4568C53.8056 57.0743 53.6156 57.7631 53.6156 58.4875C53.6156 60.8387 55.5275 62.7387 57.8669 62.7387C60.2181 62.7387 62.13 60.8269 62.13 58.4875C62.13 56.1481 60.2181 54.2362 57.8669 54.2362C57.1187 54.2362 56.4062 54.4381 55.7769 54.8062L48.6044 47.4675V43.5962H52.915C55.0881 43.5962 56.8575 41.8268 56.8575 39.6537V35.5212H65.265C65.7637 37.3856 67.4738 38.7393 69.4569 38.7393C71.8675 38.7393 73.8269 36.78 73.8269 34.3694C73.8269 31.9587 71.8675 29.9993 69.4569 29.9993C67.4619 29.9993 65.74 31.3768 65.265 33.2175H56.8575V30.9375H61.6194C62.2606 30.9375 62.7831 30.415 62.7831 29.7737C62.7831 29.1325 62.2606 28.61 61.6194 28.61H56.8575V26.14H74.5275C75.1687 26.14 75.6913 25.6175 75.6913 24.9762C75.6913 24.335 75.145 23.8125 74.5038 23.8125ZM47.4644 41.2806C47.4525 41.2806 47.4525 41.2806 47.4406 41.2806C47.4287 41.2806 47.4287 41.2806 47.4169 41.2806H23.0969C22.2063 41.2806 21.4819 40.5562 21.4819 39.6656V10.3462C21.4819 9.4556 22.2063 8.73123 23.0969 8.73123H52.9031C53.7938 8.73123 54.5181 9.4556 54.5181 10.3462V39.6537C54.5181 40.5443 53.7938 41.2687 52.9031 41.2687H47.4644V41.2806Z" fill="#463487"/>
</g>
<defs>
<clipPath id="clip0_41_88">
<rect width="76" height="76" fill="white" transform="translate(0 -13)"/>
</clipPath>
</defs>
</svg>
