<svg width="26" height="26" viewBox="0 0 26 26" fill="none" xmlns="http://www.w3.org/2000/svg">
<g clip-path="url(#clip0_17_42)">
<path d="M26 5.45161C26 2.44484 23.5552 0 20.5484 0H5.45161C2.44484 0 0 2.44484 0 5.45161V20.5484C0 23.5552 2.44484 26 5.45161 26H9.64516C10.3371 26 10.9032 25.4339 10.9032 24.7419C10.9032 24.05 10.3371 23.4839 9.64516 23.4839H5.45161C3.8329 23.4839 2.51613 22.1671 2.51613 20.5484V5.45161C2.51613 3.8329 3.8329 2.51613 5.45161 2.51613H20.5484C22.1671 2.51613 23.4839 3.8329 23.4839 5.45161V9.64516C23.4839 10.3371 24.05 10.9032 24.7419 10.9032C25.4339 10.9032 26 10.3371 26 9.64516V5.45161Z" fill="black"/>
<path d="M19.2903 13.4194C18.5984 13.4194 18.0322 13.9855 18.0322 14.6774V18.0323H14.6774C13.9855 18.0323 13.4193 18.5984 13.4193 19.2903C13.4193 19.9823 13.9855 20.5484 14.6774 20.5484H18.0322V23.9032C18.0322 24.5952 18.5984 25.1613 19.2903 25.1613C19.9822 25.1613 20.5484 24.5952 20.5484 23.9032V20.5484H23.9032C24.5951 20.5484 25.1613 19.9823 25.1613 19.2903C25.1613 18.5984 24.5951 18.0323 23.9032 18.0323H20.5484V14.6774C20.5484 13.9855 19.9822 13.4194 19.2903 13.4194Z" fill="black"/>
</g>
<defs>
<clipPath id="clip0_17_42">
<rect width="26" height="26" fill="white"/>
</clipPath>
</defs>
</svg>
