<svg width="17" height="22" viewBox="0 0 17 22" fill="none" xmlns="http://www.w3.org/2000/svg">
<g clip-path="url(#clip0_50_1113)">
<path d="M14.9988 4.74231H1.01932C0.922243 4.74231 0.825163 4.7912 0.752353 4.86453C0.679543 4.93787 0.655273 5.03564 0.655273 5.13342L1.72315 20.0934C1.79596 21.0956 2.59687 21.9023 3.51913 21.9023H12.499C13.4213 21.9023 14.2222 21.1201 14.295 20.0934L15.3629 5.13342C15.3629 5.03564 15.3386 4.93787 15.2658 4.86453C15.2172 4.7912 15.1202 4.74231 14.9988 4.74231ZM4.61128 18.6268C4.58701 18.6268 4.58701 18.6268 4.56274 18.6268C4.34431 18.6268 4.12588 18.529 3.95599 18.3823C3.76183 18.2112 3.64048 17.9423 3.64048 17.6734L3.22789 9.06898C3.20362 8.5312 3.59194 8.06675 4.12588 8.01786C4.36858 8.01786 4.61128 8.0912 4.78117 8.26231C4.97533 8.43342 5.09667 8.70231 5.09667 8.9712L5.50926 17.5756C5.53353 18.1134 5.14522 18.6023 4.61128 18.6268ZM8.9556 17.7712C8.9556 18.2356 8.56728 18.6268 8.10615 18.6268H7.93626C7.47513 18.6268 7.08681 18.2356 7.08681 17.7712V8.87342C7.08681 8.40898 7.47513 8.01786 7.93626 8.01786H8.10615C8.56728 8.01786 8.9556 8.40898 8.9556 8.87342V17.7712ZM12.3777 17.6734C12.3777 17.9423 12.2563 18.2112 12.0622 18.3823C11.8923 18.529 11.6738 18.6268 11.4554 18.6268C11.4311 18.6268 11.4311 18.6268 11.4069 18.6268C10.8972 18.6023 10.4846 18.1379 10.5089 17.5756L10.9215 8.9712C10.9215 8.70231 11.0428 8.45786 11.237 8.26231C11.4311 8.0912 11.6496 8.01786 11.8923 8.01786C12.4019 8.04231 12.8145 8.50675 12.7902 9.06898L12.3777 17.6734Z" fill="white"/>
<path d="M14.2465 1.76003H10.8001C10.7273 0.831142 9.97495 0.0733643 9.02842 0.0733643H6.98975C6.04322 0.0733643 5.26658 0.806697 5.19377 1.76003H1.77171C0.800908 1.76003 0 2.5667 0 3.54448V3.81336C0 4.00892 0.16989 4.18003 0.364049 4.18003H15.6784C15.8725 4.18003 16.0424 4.00892 16.0424 3.81336V3.54448C16.0424 2.5667 15.2415 1.76003 14.2465 1.76003ZM6.98975 0.831142H9.02842C9.56236 0.831142 10.0235 1.2467 10.072 1.78448H5.94614C5.99468 1.2467 6.45581 0.831142 6.98975 0.831142Z" fill="white"/>
</g>
<defs>
<clipPath id="clip0_50_1113">
<rect width="16.2609" height="22" fill="white"/>
</clipPath>
</defs>
</svg>
