<svg width="21" height="20" viewBox="0 0 21 20" fill="none" xmlns="http://www.w3.org/2000/svg">
<g clip-path="url(#clip0_17_98)">
<path d="M12.9 0H7.1C3.2 0 0 3.2 0 7.1V13C0 16.8 3.2 20 7.1 20H13C16.9 20 20.1 16.8 20.1 12.9V7.1C20 3.2 16.8 0 12.9 0ZM18 12.9C18 15.7 15.7 18 12.9 18H7.1C6.1 18 5.1 17.7 4.3 17.2L10 11.5V13C10 13.6 10.4 14 11 14C11.6 14 12 13.6 12 13V9C12 8.9 12 8.7 11.9 8.6C11.8 8.4 11.6 8.2 11.4 8.1C11.3 8 11.1 8 11 8H7C6.4 8 6 8.4 6 9C6 9.6 6.4 10 7 10H8.6L2.9 15.7C2.3 14.9 2 14 2 12.9V7.1C2 4.3 4.3 2 7.1 2H13C15.7 2 18 4.3 18 7.1V12.9Z" fill="#174070"/>
</g>
<defs>
<clipPath id="clip0_17_98">
<rect width="21" height="20" fill="white"/>
</clipPath>
</defs>
</svg>
