<svg width="43" height="36" viewBox="0 0 43 36" fill="none" xmlns="http://www.w3.org/2000/svg">
<g clip-path="url(#clip0_97_36)">
<path d="M7.10889 32.4451V35.1282C7.10957 35.2243 7.13308 35.3188 7.17746 35.4039C7.22183 35.489 7.28579 35.5621 7.36397 35.6171C7.44215 35.6722 7.53229 35.7076 7.62684 35.7204C7.7214 35.7332 7.81762 35.723 7.90746 35.6907C12.296 34.3606 16.8617 33.7193 21.4441 33.7894C27.0285 33.7894 32.0545 34.6107 35.6508 35.9326C35.7407 35.9649 35.8369 35.9751 35.9314 35.9623C36.026 35.9495 36.1161 35.9141 36.1943 35.859C36.2725 35.804 36.3365 35.7308 36.3808 35.6458C36.4252 35.5607 36.4487 35.4662 36.4494 35.3701V32.4451C32.6688 31.0107 27.3412 30.1951 21.7791 30.1951C16.2171 30.1951 10.8951 31.0107 7.10889 32.4451Z" fill="#FFDC18"/>
<path d="M28.2516 19.6087L22.1088 6.63186L21.7793 5.91748L21.4442 6.63186L14.7039 20.8856L3.90918 11.3794L6.8745 29.9419C10.8953 28.53 16.1391 27.765 21.7681 27.765C27.3972 27.765 32.6354 28.53 36.6562 29.9419L39.6327 11.3794L28.8603 20.8856L28.2516 19.6087Z" fill="#FFDC18"/>
<path d="M21.7792 5.16369C23.1855 5.16369 24.3257 4.0153 24.3257 2.59869C24.3257 1.18208 23.1855 0.0336914 21.7792 0.0336914C20.3728 0.0336914 19.2327 1.18208 19.2327 2.59869C19.2327 4.0153 20.3728 5.16369 21.7792 5.16369Z" fill="#FFDC18"/>
<path d="M4.68544 8.23506C4.68654 7.82295 4.56616 7.41979 4.33954 7.07667C4.11293 6.73355 3.79028 6.46592 3.4125 6.3077C3.03472 6.14948 2.61881 6.10779 2.21748 6.18791C1.81615 6.26804 1.44747 6.46637 1.15817 6.75778C0.868861 7.04918 0.671958 7.42054 0.59241 7.82479C0.512862 8.22904 0.554251 8.64797 0.711331 9.0285C0.868411 9.40902 1.13411 9.73401 1.47476 9.96228C1.8154 10.1905 2.21565 10.3118 2.62479 10.3107C3.17131 10.3107 3.69544 10.092 4.08189 9.70275C4.46834 9.3135 4.68544 8.78555 4.68544 8.23506Z" fill="#FFDC18"/>
<path d="M40.9337 10.3163C42.0748 10.3163 42.9999 9.3845 42.9999 8.23506C42.9999 7.08562 42.0748 6.15381 40.9337 6.15381C39.7925 6.15381 38.8674 7.08562 38.8674 8.23506C38.8674 9.3845 39.7925 10.3163 40.9337 10.3163Z" fill="#FFDC18"/>
</g>
<defs>
<clipPath id="clip0_97_36">
<rect width="43" height="36" fill="white"/>
</clipPath>
</defs>
</svg>
