<svg width="21" height="20" viewBox="0 0 21 20" fill="none" xmlns="http://www.w3.org/2000/svg">
<g clip-path="url(#clip0_49_908)">
<path d="M10.3846 3.72339C6.70667 3.72339 3.69946 6.65956 3.69946 10.2979C3.69946 11.9362 4.30523 13.4255 5.32206 14.5745C5.62494 14.1489 5.99273 13.7659 6.42542 13.4681C5.71148 12.5957 5.27879 11.4893 5.27879 10.2766C5.27879 7.51062 7.57206 5.23403 10.3846 5.23403C13.1971 5.23403 15.512 7.48935 15.512 10.2766C15.512 11.4893 15.0793 12.5957 14.3653 13.4681C14.7764 13.7659 15.1658 14.1489 15.4471 14.5745C16.4639 13.4255 17.0913 11.9362 17.0913 10.2979C17.0697 6.68084 14.0841 3.72339 10.3846 3.72339Z" fill="black"/>
<path d="M10.3846 0.191528C4.71633 0.191528 0.108154 4.72344 0.108154 10.2979C0.108154 13.6383 1.77402 16.6171 4.3269 18.4681L4.49998 16.7234C4.49998 16.7022 4.49998 16.6596 4.52162 16.6171C2.76921 15.0639 1.66585 12.7873 1.66585 10.2979C1.66585 5.57451 5.56008 1.72344 10.3846 1.72344C15.1875 1.72344 19.1033 5.57451 19.1033 10.2979C19.1033 12.8085 18 15.0426 16.2692 16.6171C16.2692 16.6596 16.2692 16.7234 16.2908 16.766L16.4639 18.4681C19.0168 16.6383 20.6827 13.6596 20.6827 10.3192C20.661 4.72344 16.0529 0.191528 10.3846 0.191528Z" fill="black"/>
<path d="M14.4952 19.8085H6.27408C5.99283 19.8085 5.79812 19.5745 5.81975 19.3192L6.05774 16.9149C6.25245 15.3192 7.61543 14.1277 9.25966 14.1277H11.5313C13.1539 14.1277 14.5385 15.3192 14.7332 16.9149L14.9712 19.2979C14.9712 19.5745 14.7765 19.8085 14.4952 19.8085Z" fill="black"/>
<path d="M13.4134 10.2979C13.4134 8.65964 12.0504 7.31921 10.3846 7.31921C8.71869 7.31921 7.35571 8.65964 7.35571 10.2979C7.35571 11.9362 8.71869 13.2767 10.3846 13.2767C12.0504 13.2767 13.4134 11.9575 13.4134 10.2979Z" fill="black"/>
</g>
<defs>
<clipPath id="clip0_49_908">
<rect width="20.7692" height="20" fill="white"/>
</clipPath>
</defs>
</svg>
