<svg width="22" height="22" viewBox="0 0 22 22" fill="none" xmlns="http://www.w3.org/2000/svg">
<g clip-path="url(#clip0_77_209)">
<path d="M15.4 22H6.6C2.96667 22 0 19.0333 0 15.4V6.6C0 2.96667 2.96667 0 6.6 0H12.0667C12.8 0 13.4 0.6 13.4 1.33333C13.4 2.06667 12.8 2.66667 12.0667 2.66667H6.6C4.43333 2.66667 2.66667 4.43333 2.66667 6.6V15.4C2.66667 17.5667 4.43333 19.3333 6.6 19.3333H15.4C17.5667 19.3333 19.3333 17.5667 19.3333 15.4V9.93333C19.3333 9.2 19.9333 8.6 20.6667 8.6C21.4 8.6 22 9.2 22 9.93333V15.4C22 19.0333 19.0333 22 15.4 22Z" fill="black"/>
<path d="M10.4333 14.4666L8.83333 14.3332C8.26666 14.2999 7.83333 13.8666 7.79999 13.2999L7.66666 11.6999C7.63333 11.3666 7.76666 11.0666 7.99999 10.8332L16.7333 2.0999C17.1667 1.66657 17.9 1.66657 18.3333 2.0999L20.0333 3.7999C20.4667 4.23324 20.4667 4.96657 20.0333 5.3999L11.3 14.1332C11.0667 14.3666 10.7667 14.4999 10.4333 14.4666Z" fill="black"/>
</g>
<defs>
<clipPath id="clip0_77_209">
<rect width="22" height="22" fill="white"/>
</clipPath>
</defs>
</svg>
