<svg width="28" height="26" viewBox="0 0 28 26" fill="none" xmlns="http://www.w3.org/2000/svg">
<path d="M16.77 0H9.23C4.16 0 0 4.16 0 9.23V16.9C0 21.84 4.16 26 9.23 26H16.9C21.97 26 26.13 21.84 26.13 16.77V9.23C26 4.16 21.84 0 16.77 0ZM23.4 16.77C23.4 20.41 20.41 23.4 16.77 23.4H9.23C7.93 23.4 6.63 23.01 5.59 22.36L13 14.95V16.9C13 17.68 13.52 18.2 14.3 18.2C15.08 18.2 15.6 17.68 15.6 16.9V11.7C15.6 11.57 15.6 11.31 15.47 11.18C15.34 10.92 15.08 10.66 14.82 10.53C14.69 10.4 14.43 10.4 14.3 10.4H9.1C8.32 10.4 7.8 10.92 7.8 11.7C7.8 12.48 8.32 13 9.1 13H11.18L3.77 20.41C2.99 19.37 2.6 18.2 2.6 16.77V9.23C2.6 5.59 5.59 2.6 9.23 2.6H16.9C20.41 2.6 23.4 5.59 23.4 9.23V16.77Z" fill="black"/>
</svg>
