<svg width="25" height="25" viewBox="0 0 25 25" fill="none" xmlns="http://www.w3.org/2000/svg">
<g clip-path="url(#clip0_82_226)">
<path d="M15.6419 0.416464L23.8562 3.98789C24.117 4.10128 24.2857 4.35857 24.2857 4.64294V20.3572C24.2857 20.6416 24.117 20.8989 23.8562 21.0123L15.6419 24.5837C15.1702 24.7888 14.6429 24.4431 14.6429 23.9287V1.07151C14.6429 0.557108 15.1702 0.211357 15.6419 0.416464ZM17.5 13.5715C18.0917 13.5715 18.5714 13.0918 18.5714 12.5001C18.5714 11.9083 18.0917 11.4287 17.5 11.4287C16.9083 11.4287 16.4286 11.9083 16.4286 12.5001C16.4286 13.0918 16.9083 13.5715 17.5 13.5715ZM7.7011 15.8542L11.4286 19.5817L8.9719 22.0383C8.55348 22.4567 7.87509 22.4567 7.45668 22.0383L6.17604 20.7577C5.81817 20.3998 5.76638 19.8518 6.02068 19.4389L4.89899 19.2786C4.74599 19.2568 4.60421 19.1859 4.49492 19.0766L1.89032 16.472C1.47191 16.0536 1.47191 15.3752 1.89032 14.9568L2.03992 14.8072C2.42253 14.4245 2.98848 14.2909 3.50182 14.462L7.60256 15.829C7.63507 15.8398 7.66799 15.8482 7.7011 15.8542ZM13.2143 10.7756V17.796L12.4387 18.5715L8.92857 15.0614L13.2143 10.7756ZM4.99448 9.55434C5.04342 9.94578 4.76576 10.3028 4.37431 10.3517C3.98287 10.4006 3.62587 10.123 3.57694 9.73154L3.2198 6.8744C3.17087 6.48295 3.44853 6.12596 3.83997 6.07703C4.23141 6.0281 4.58841 6.30576 4.63734 6.6972L4.99448 9.55434ZM2.64793 10.5664C2.92688 10.8454 2.92688 11.2976 2.64793 11.5766C2.36899 11.8555 1.91673 11.8555 1.63778 11.5766L0.209209 10.148C-0.0697364 9.86907 -0.0697364 9.41681 0.209209 9.13786C0.488155 8.85892 0.940417 8.85892 1.21936 9.13786L2.64793 10.5664ZM7.44892 10.2654C7.30241 10.6316 6.88671 10.8098 6.52044 10.6633C6.15417 10.5168 5.976 10.1011 6.12251 9.73481L6.8368 7.9491C6.98331 7.58282 7.399 7.40466 7.76527 7.55117C8.13155 7.69768 8.30971 8.11337 8.1632 8.47964L7.44892 10.2654Z" fill="#ED4141"/>
<path fill-rule="evenodd" clip-rule="evenodd" d="M11.4286 19.5818L7.7011 15.8543C7.66799 15.8483 7.63507 15.8399 7.60256 15.8291L3.50182 14.4621C2.98848 14.291 2.42253 14.4246 2.03992 14.8073L1.89032 14.9569C1.47191 15.3753 1.47191 16.0537 1.89032 16.4721L4.49492 19.0767C4.60421 19.186 4.74599 19.2569 4.89899 19.2787L6.02068 19.439C5.76638 19.8519 5.81817 20.3999 6.17604 20.7578L7.45668 22.0384C7.87509 22.4568 8.55348 22.4568 8.9719 22.0384L11.4286 19.5818ZM13.2143 17.796V10.7757L8.92857 15.0615L12.4387 18.5716L13.2143 17.796ZM4.37431 10.3518C4.76576 10.3029 5.04342 9.94588 4.99448 9.55444L4.63734 6.6973C4.58841 6.30585 4.23141 6.02819 3.83997 6.07712C3.44853 6.12605 3.17087 6.48305 3.2198 6.87449L3.57694 9.73164C3.62587 10.1231 3.98287 10.4007 4.37431 10.3518ZM2.64793 11.5767C2.92688 11.2977 2.92688 10.8455 2.64793 10.5665L1.21936 9.13796C0.940417 8.85902 0.488155 8.85902 0.209209 9.13796C-0.0697364 9.41691 -0.0697364 9.86917 0.209209 10.1481L1.63778 11.5767C1.91673 11.8556 2.36899 11.8556 2.64793 11.5767ZM6.52044 10.6634C6.88671 10.8099 7.30241 10.6317 7.44892 10.2655L8.1632 8.47974C8.30971 8.11347 8.13155 7.69777 7.76527 7.55126C7.399 7.40476 6.98331 7.58292 6.8368 7.94919L6.12251 9.73491C5.976 10.1012 6.15417 10.5169 6.52044 10.6634Z" fill="#C0ACD6"/>
</g>
<defs>
<clipPath id="clip0_82_226">
<rect width="24.2857" height="25" fill="white"/>
</clipPath>
</defs>
</svg>
