<svg width="22" height="22" viewBox="0 0 22 22" fill="none" xmlns="http://www.w3.org/2000/svg">
<g clip-path="url(#clip0_78_224)">
<path d="M17.7333 14.8L21.7333 10.8L17.7333 6.79997V9.46663H13.7333V12.1333H17.7333V14.8ZM17.7333 18.8H12.4V1.46663C12.4 0.729967 11.8033 0.133301 11.0667 0.133301L3.06666 1.46663C2.32999 1.46663 1.73333 2.0633 1.73333 2.79997V18.8C0.399994 18.8 0.399994 19.3966 0.399994 20.1333V21.4666H19.0667V20.1333C19.0667 19.3966 18.47 18.8 17.7333 18.8ZM9.73266 10.8C8.99599 10.8 8.39933 10.2033 8.39933 9.46663C8.39933 8.72997 8.99599 8.1333 9.73266 8.1333C10.4693 8.1333 11.066 8.72997 11.066 9.46663C11.066 10.2033 10.4693 10.8 9.73266 10.8Z" fill="white"/>
</g>
<defs>
<clipPath id="clip0_78_224">
<rect width="22" height="22" fill="white"/>
</clipPath>
</defs>
</svg>
