<svg width="102" height="16" viewBox="0 0 102 16" fill="none" xmlns="http://www.w3.org/2000/svg">
<path d="M3.584 12V2.592H0.384V0.544H8.944V2.592H5.744V12H3.584ZM10.2241 0.544H12.3201V3.76L12.1921 5.184H12.3201C12.5441 4.81067 12.8641 4.50667 13.2801 4.272C13.7068 4.02667 14.1815 3.904 14.7041 3.904C15.7175 3.904 16.4641 4.20267 16.9441 4.8C17.4348 5.39733 17.6801 6.21333 17.6801 7.248V12H15.5841V7.504C15.5841 6.96 15.4561 6.54933 15.2001 6.272C14.9441 5.984 14.5868 5.84 14.1281 5.84C13.8401 5.84 13.5841 5.904 13.3601 6.032C13.1361 6.14933 12.9441 6.31467 12.7841 6.528C12.6348 6.74133 12.5175 6.992 12.4321 7.28C12.3575 7.55733 12.3201 7.856 12.3201 8.176V12H10.2241V0.544ZM26.8356 10.112C26.473 10.752 25.9823 11.2693 25.3636 11.664C24.7556 12.0587 24.009 12.256 23.1236 12.256C22.5263 12.256 21.9716 12.1547 21.4596 11.952C20.9583 11.7387 20.521 11.4453 20.1476 11.072C19.7743 10.6987 19.481 10.2613 19.2676 9.76C19.065 9.248 18.9636 8.688 18.9636 8.08C18.9636 7.51467 19.065 6.98133 19.2676 6.48C19.4703 5.968 19.753 5.52533 20.1156 5.152C20.4783 4.768 20.905 4.464 21.3956 4.24C21.897 4.016 22.4463 3.904 23.0436 3.904C23.673 3.904 24.233 4.01067 24.7236 4.224C25.2143 4.42667 25.625 4.71467 25.9556 5.088C26.2863 5.45067 26.537 5.88267 26.7076 6.384C26.8783 6.88533 26.9636 7.42933 26.9636 8.016C26.9636 8.09067 26.9636 8.15467 26.9636 8.208C26.953 8.272 26.9476 8.33067 26.9476 8.384C26.937 8.43733 26.9316 8.496 26.9316 8.56H21.0276C21.0703 8.88 21.1556 9.15733 21.2836 9.392C21.4223 9.616 21.5876 9.808 21.7796 9.968C21.9823 10.1173 22.201 10.2293 22.4356 10.304C22.6703 10.368 22.9103 10.4 23.1556 10.4C23.6356 10.4 24.0303 10.2933 24.3396 10.08C24.6596 9.856 24.9103 9.57867 25.0916 9.248L26.8356 10.112ZM24.9316 7.072C24.921 6.93333 24.873 6.77867 24.7876 6.608C24.713 6.43733 24.5956 6.27733 24.4356 6.128C24.2863 5.97867 24.0943 5.856 23.8596 5.76C23.6356 5.664 23.3636 5.616 23.0436 5.616C22.5956 5.616 22.201 5.744 21.8596 6C21.5183 6.256 21.2783 6.61333 21.1396 7.072H24.9316ZM39.6654 11.744C39.292 11.904 38.8974 12.0267 38.4814 12.112C38.0654 12.208 37.6334 12.256 37.1854 12.256C36.332 12.256 35.5374 12.1013 34.8014 11.792C34.076 11.4827 33.4467 11.0613 32.9134 10.528C32.38 9.984 31.9587 9.34933 31.6494 8.624C31.3507 7.888 31.2014 7.104 31.2014 6.272C31.2014 5.44 31.3507 4.66133 31.6494 3.936C31.9587 3.2 32.38 2.56533 32.9134 2.032C33.4467 1.488 34.076 1.06133 34.8014 0.752C35.5374 0.442666 36.332 0.287999 37.1854 0.287999C38.0387 0.287999 38.828 0.442666 39.5534 0.752C40.2894 1.06133 40.924 1.488 41.4574 2.032C41.9907 2.56533 42.4067 3.2 42.7054 3.936C43.0147 4.66133 43.1694 5.44 43.1694 6.272C43.1694 7.15733 43.004 7.97867 42.6734 8.736C42.3427 9.49333 41.8787 10.144 41.2814 10.688L42.1614 12L40.5614 13.072L39.6654 11.744ZM37.2334 8.096L38.8334 7.008L40.0814 8.896C40.3694 8.56533 40.5934 8.18133 40.7534 7.744C40.924 7.296 41.0094 6.80533 41.0094 6.272C41.0094 5.68533 40.908 5.152 40.7054 4.672C40.5134 4.18133 40.2414 3.76533 39.8894 3.424C39.548 3.08267 39.1427 2.816 38.6734 2.624C38.2147 2.432 37.7187 2.336 37.1854 2.336C36.652 2.336 36.1507 2.432 35.6814 2.624C35.2227 2.816 34.8174 3.08267 34.4654 3.424C34.124 3.76533 33.852 4.18133 33.6494 4.672C33.4574 5.152 33.3614 5.68533 33.3614 6.272C33.3614 6.85867 33.4574 7.39733 33.6494 7.888C33.852 8.368 34.124 8.77867 34.4654 9.12C34.8174 9.46133 35.2227 9.728 35.6814 9.92C36.1507 10.112 36.652 10.208 37.1854 10.208C37.42 10.208 37.644 10.1867 37.8574 10.144C38.0707 10.1013 38.2787 10.0427 38.4814 9.968L37.2334 8.096ZM50.0856 10.976H49.9576C49.7123 11.3707 49.3816 11.6853 48.9656 11.92C48.5496 12.144 48.075 12.256 47.5416 12.256C46.5496 12.256 45.8083 11.952 45.3176 11.344C44.8376 10.736 44.5976 9.92533 44.5976 8.912V4.16H46.6936V8.656C46.6936 9.22133 46.8163 9.64267 47.0616 9.92C47.3176 10.1867 47.6856 10.32 48.1656 10.32C48.4536 10.32 48.7043 10.2613 48.9176 10.144C49.1416 10.016 49.3283 9.85067 49.4776 9.648C49.6376 9.43467 49.755 9.18933 49.8296 8.912C49.915 8.624 49.9576 8.32 49.9576 8V4.16H52.0536V12H50.0856V10.976ZM55.0171 3.024C54.8358 3.024 54.6598 2.992 54.4891 2.928C54.3291 2.85333 54.1851 2.75733 54.0571 2.64C53.9398 2.512 53.8438 2.368 53.7691 2.208C53.7051 2.048 53.6731 1.872 53.6731 1.68C53.6731 1.488 53.7051 1.312 53.7691 1.152C53.8438 0.992 53.9398 0.853333 54.0571 0.735999C54.1851 0.607999 54.3291 0.511999 54.4891 0.447999C54.6598 0.373333 54.8358 0.335999 55.0171 0.335999C55.3905 0.335999 55.7105 0.469333 55.9771 0.735999C56.2438 0.992 56.3771 1.30667 56.3771 1.68C56.3771 2.05333 56.2438 2.37333 55.9771 2.64C55.7105 2.896 55.3905 3.024 55.0171 3.024ZM53.9771 12V4.16H56.0731V12H53.9771ZM57.6058 10.272L61.6058 5.952H57.7338V4.16H64.1818V5.888L60.1818 10.208H64.2458V12H57.6058V10.272ZM72.2773 0.544H74.7413L79.0453 12H76.6613L75.7173 9.264H71.3013L70.3573 12H67.9733L72.2773 0.544ZM75.0133 7.28L73.9893 4.416L73.5733 3.024H73.4453L73.0293 4.416L72.0052 7.28H75.0133ZM80.1445 4.16H82.1125V5.104H82.2405C82.4325 4.77333 82.7312 4.49067 83.1365 4.256C83.5418 4.02133 84.0432 3.904 84.6405 3.904C85.1418 3.904 85.6165 4.01067 86.0645 4.224C86.5232 4.42667 86.9232 4.71467 87.2645 5.088C87.6165 5.45067 87.8938 5.888 88.0965 6.4C88.2992 6.912 88.4005 7.472 88.4005 8.08C88.4005 8.688 88.2992 9.248 88.0965 9.76C87.8938 10.272 87.6165 10.7147 87.2645 11.088C86.9232 11.4507 86.5232 11.7387 86.0645 11.952C85.6165 12.1547 85.1418 12.256 84.6405 12.256C84.0432 12.256 83.5418 12.1387 83.1365 11.904C82.7312 11.6693 82.4325 11.3867 82.2405 11.056H82.1125L82.2405 12.176V15.456H80.1445V4.16ZM84.2085 10.32C84.4858 10.32 84.7472 10.2667 84.9925 10.16C85.2485 10.0533 85.4725 9.904 85.6645 9.712C85.8565 9.52 86.0112 9.28533 86.1285 9.008C86.2458 8.73067 86.3045 8.42133 86.3045 8.08C86.3045 7.73867 86.2458 7.42933 86.1285 7.152C86.0112 6.87467 85.8565 6.64 85.6645 6.448C85.4725 6.256 85.2485 6.10667 84.9925 6C84.7472 5.89333 84.4858 5.84 84.2085 5.84C83.9312 5.84 83.6645 5.89333 83.4085 6C83.1632 6.096 82.9445 6.24 82.7525 6.432C82.5605 6.624 82.4058 6.85867 82.2885 7.136C82.1712 7.41333 82.1125 7.728 82.1125 8.08C82.1125 8.432 82.1712 8.74667 82.2885 9.024C82.4058 9.30133 82.5605 9.536 82.7525 9.728C82.9445 9.92 83.1632 10.0693 83.4085 10.176C83.6645 10.272 83.9312 10.32 84.2085 10.32ZM89.5195 4.16H91.4875V5.104H91.6155C91.8075 4.77333 92.1062 4.49067 92.5115 4.256C92.9168 4.02133 93.4182 3.904 94.0155 3.904C94.5168 3.904 94.9915 4.01067 95.4395 4.224C95.8982 4.42667 96.2982 4.71467 96.6395 5.088C96.9915 5.45067 97.2688 5.888 97.4715 6.4C97.6742 6.912 97.7755 7.472 97.7755 8.08C97.7755 8.688 97.6742 9.248 97.4715 9.76C97.2688 10.272 96.9915 10.7147 96.6395 11.088C96.2982 11.4507 95.8982 11.7387 95.4395 11.952C94.9915 12.1547 94.5168 12.256 94.0155 12.256C93.4182 12.256 92.9168 12.1387 92.5115 11.904C92.1062 11.6693 91.8075 11.3867 91.6155 11.056H91.4875L91.6155 12.176V15.456H89.5195V4.16ZM93.5835 10.32C93.8608 10.32 94.1222 10.2667 94.3675 10.16C94.6235 10.0533 94.8475 9.904 95.0395 9.712C95.2315 9.52 95.3862 9.28533 95.5035 9.008C95.6208 8.73067 95.6795 8.42133 95.6795 8.08C95.6795 7.73867 95.6208 7.42933 95.5035 7.152C95.3862 6.87467 95.2315 6.64 95.0395 6.448C94.8475 6.256 94.6235 6.10667 94.3675 6C94.1222 5.89333 93.8608 5.84 93.5835 5.84C93.3062 5.84 93.0395 5.89333 92.7835 6C92.5382 6.096 92.3195 6.24 92.1275 6.432C91.9355 6.624 91.7808 6.85867 91.6635 7.136C91.5462 7.41333 91.4875 7.728 91.4875 8.08C91.4875 8.432 91.5462 8.74667 91.6635 9.024C91.7808 9.30133 91.9355 9.536 92.1275 9.728C92.3195 9.92 92.5382 10.0693 92.7835 10.176C93.0395 10.272 93.3062 10.32 93.5835 10.32ZM100.379 12.096C99.9948 12.096 99.6641 11.9627 99.3868 11.696C99.1201 11.4187 98.9868 11.088 98.9868 10.704C98.9868 10.32 99.1201 9.99467 99.3868 9.728C99.6641 9.46133 99.9948 9.328 100.379 9.328C100.763 9.328 101.088 9.46133 101.355 9.728C101.621 9.99467 101.755 10.32 101.755 10.704C101.755 11.088 101.621 11.4187 101.355 11.696C101.088 11.9627 100.763 12.096 100.379 12.096Z" fill="url(#paint0_radial_16_27)"/>
<defs>
<radialGradient id="paint0_radial_16_27" cx="0" cy="0" r="1" gradientUnits="userSpaceOnUse" gradientTransform="translate(51.5 6.5) scale(51.5 9.5)">
<stop stop-color="white"/>
<stop offset="1" stop-color="#7687F7"/>
</radialGradient>
</defs>
</svg>
