<svg width="12" height="20" viewBox="0 0 12 20" fill="none" xmlns="http://www.w3.org/2000/svg">
<g clip-path="url(#clip0_47_613)">
<path fill-rule="evenodd" clip-rule="evenodd" d="M2.4 15C3.72548 15 4.8 16.1193 4.8 17.5C4.8 18.8807 3.72548 20 2.4 20C1.07452 20 0 18.8807 0 17.5C0 16.1193 1.07452 15 2.4 15ZM9.6 15C10.9255 15 12 16.1193 12 17.5C12 18.8807 10.9255 20 9.6 20C8.27452 20 7.2 18.8807 7.2 17.5C7.2 16.1193 8.27452 15 9.6 15ZM2.4 7.5C3.72548 7.5 4.8 8.61929 4.8 10C4.8 11.3807 3.72548 12.5 2.4 12.5C1.07452 12.5 0 11.3807 0 10C0 8.61929 1.07452 7.5 2.4 7.5ZM9.6 7.5C10.9255 7.5 12 8.61929 12 10C12 11.3807 10.9255 12.5 9.6 12.5C8.27452 12.5 7.2 11.3807 7.2 10C7.2 8.61929 8.27452 7.5 9.6 7.5ZM2.4 0C3.72548 0 4.8 1.11929 4.8 2.5C4.8 3.88071 3.72548 5 2.4 5C1.07452 5 0 3.88071 0 2.5C0 1.11929 1.07452 0 2.4 0ZM9.6 0C10.9255 0 12 1.11929 12 2.5C12 3.88071 10.9255 5 9.6 5C8.27452 5 7.2 3.88071 7.2 2.5C7.2 1.11929 8.27452 0 9.6 0Z" fill="#585858"/>
</g>
<defs>
<clipPath id="clip0_47_613">
<rect width="12" height="20" fill="white"/>
</clipPath>
</defs>
</svg>
