<svg width="28" height="14" viewBox="0 0 28 14" fill="none" xmlns="http://www.w3.org/2000/svg">
<path d="M9.056 11.744C8.68267 11.904 8.288 12.0267 7.872 12.112C7.456 12.208 7.024 12.256 6.576 12.256C5.72267 12.256 4.928 12.1013 4.192 11.792C3.46667 11.4827 2.83733 11.0613 2.304 10.528C1.77067 9.984 1.34933 9.34933 1.04 8.624C0.741333 7.888 0.592 7.104 0.592 6.272C0.592 5.44 0.741333 4.66133 1.04 3.936C1.34933 3.2 1.77067 2.56533 2.304 2.032C2.83733 1.488 3.46667 1.06133 4.192 0.752C4.928 0.442666 5.72267 0.287999 6.576 0.287999C7.42933 0.287999 8.21867 0.442666 8.944 0.752C9.68 1.06133 10.3147 1.488 10.848 2.032C11.3813 2.56533 11.7973 3.2 12.096 3.936C12.4053 4.66133 12.56 5.44 12.56 6.272C12.56 7.15733 12.3947 7.97867 12.064 8.736C11.7333 9.49333 11.2693 10.144 10.672 10.688L11.552 12L9.952 13.072L9.056 11.744ZM6.624 8.096L8.224 7.008L9.472 8.896C9.76 8.56533 9.984 8.18133 10.144 7.744C10.3147 7.296 10.4 6.80533 10.4 6.272C10.4 5.68533 10.2987 5.152 10.096 4.672C9.904 4.18133 9.632 3.76533 9.28 3.424C8.93867 3.08267 8.53333 2.816 8.064 2.624C7.60533 2.432 7.10933 2.336 6.576 2.336C6.04267 2.336 5.54133 2.432 5.072 2.624C4.61333 2.816 4.208 3.08267 3.856 3.424C3.51467 3.76533 3.24267 4.18133 3.04 4.672C2.848 5.152 2.752 5.68533 2.752 6.272C2.752 6.85867 2.848 7.39733 3.04 7.888C3.24267 8.368 3.51467 8.77867 3.856 9.12C4.208 9.46133 4.61333 9.728 5.072 9.92C5.54133 10.112 6.04267 10.208 6.576 10.208C6.81067 10.208 7.03467 10.1867 7.248 10.144C7.46133 10.1013 7.66933 10.0427 7.872 9.968L6.624 8.096ZM17.3398 0.544H19.8038L24.1078 12H21.7238L20.7798 9.264H16.3638L15.4198 12H13.0358L17.3398 0.544ZM20.0758 7.28L19.0518 4.416L18.6358 3.024H18.5078L18.0918 4.416L17.0677 7.28H20.0758ZM26.4569 12.096C26.0729 12.096 25.7422 11.9627 25.4649 11.696C25.1982 11.4187 25.0649 11.088 25.0649 10.704C25.0649 10.32 25.1982 9.99467 25.4649 9.728C25.7422 9.46133 26.0729 9.328 26.4569 9.328C26.8409 9.328 27.1662 9.46133 27.4329 9.728C27.6995 9.99467 27.8329 10.32 27.8329 10.704C27.8329 11.088 27.6995 11.4187 27.4329 11.696C27.1662 11.9627 26.8409 12.096 26.4569 12.096Z" fill="url(#paint0_radial_39_34)"/>
<defs>
<radialGradient id="paint0_radial_39_34" cx="0" cy="0" r="1" gradientUnits="userSpaceOnUse" gradientTransform="translate(14.5 6.5) scale(14.5 9.5)">
<stop stop-color="white"/>
<stop offset="1" stop-color="#7687F7"/>
</radialGradient>
</defs>
</svg>
