<svg width="31" height="19" viewBox="0 0 31 19" fill="none" xmlns="http://www.w3.org/2000/svg">
<g clip-path="url(#clip0_17_73)">
<path d="M21.7785 11.9203C21.7256 11.9203 21.6717 11.9237 21.6188 11.931C20.9543 12.019 20.4859 12.6247 20.5742 13.282C20.6544 13.877 21.173 14.3257 21.7802 14.3257C21.8334 14.3257 21.887 14.3223 21.9402 14.3153C22.6044 14.2273 23.0728 13.6217 22.9848 12.964C22.9043 12.369 22.3857 11.9203 21.7785 11.9203Z" fill="white"/>
<path d="M23.4454 4.69433C22.9033 4.34 22.1876 4.15266 21.3745 4.15266C21.1356 4.15266 20.8899 4.169 20.6446 4.20133C19.8332 4.30833 19.0461 4.697 18.4847 5.267C17.9156 5.84566 17.639 6.552 17.7273 7.20466C17.792 7.68633 18.1586 7.99766 18.661 7.99766C18.7149 7.99766 18.7698 7.99366 18.8247 7.98666C19.496 7.898 19.6408 7.44066 19.7803 6.99866C19.9397 6.49466 20.09 6.019 20.9573 5.90433C21.0463 5.89266 21.1329 5.88666 21.2151 5.88666C21.8395 5.88666 22.227 6.21266 22.3068 6.80466C22.385 7.384 21.922 7.846 21.4318 8.335C20.8815 8.884 20.2578 9.506 20.3768 10.3883C20.4074 10.6157 20.5088 10.8277 20.6618 10.9853C20.8374 11.1663 21.0672 11.262 21.3263 11.262C21.3738 11.262 21.423 11.259 21.4719 11.2523C22.1741 11.1597 22.2698 10.7567 22.3621 10.3663C22.3971 10.219 22.4335 10.0663 22.5036 9.929C22.601 9.737 22.8446 9.51166 23.1273 9.251C23.8019 8.62733 24.7255 7.77333 24.5547 6.50833C24.4479 5.716 24.0742 5.10566 23.4454 4.69433Z" fill="white"/>
<path d="M30.9869 15.202L29.1056 1.25533C29.0089 0.54 28.3862 0 27.6567 0C27.5924 0 27.5266 0.00433319 27.4623 0.0129999L13.3644 1.874C12.5651 1.97967 12.0017 2.70867 12.1082 3.49967L12.2157 4.29767L2.96926 2.976C2.91535 2.96833 2.86042 2.96433 2.80617 2.96433C2.24649 2.96433 1.7643 3.378 1.68377 3.92633L0.106142 14.7293C0.0630113 15.0263 0.139164 15.3217 0.320446 15.562C0.502066 15.802 0.766913 15.958 1.06714 16.0007L11.9872 17.5613C12.0415 17.5687 12.0964 17.5723 12.1503 17.5723C12.71 17.5723 13.1922 17.1593 13.2724 16.6107L13.5864 14.4597L13.9891 17.4453C14.0858 18.1613 14.7085 18.701 15.4377 18.701C15.5024 18.701 15.5681 18.697 15.6324 18.6887L29.7307 16.827C30.1172 16.7763 30.4615 16.579 30.6988 16.272C30.9367 15.9653 31.0384 15.585 30.9869 15.202ZM12.3404 16.478C12.3255 16.5803 12.2278 16.6543 12.1223 16.639L1.20192 15.0783C1.13285 15.0687 1.09309 15.0277 1.07523 15.004C1.05737 14.9803 1.02907 14.9303 1.03884 14.8623L2.61647 4.05933C2.63028 3.96633 2.71183 3.896 2.80617 3.896C2.81561 3.896 2.82538 3.89667 2.83448 3.898L12.3454 5.257L13.1298 11.0717L12.3404 16.478ZM29.7344 15.5423C29.7111 15.5727 29.6586 15.625 29.57 15.6367L15.472 17.498C15.3356 17.5167 15.2112 17.4197 15.193 17.287L13.3118 3.34067C13.2936 3.20633 13.3893 3.08267 13.5251 3.06467L27.6227 1.20333C27.6345 1.202 27.6453 1.20133 27.6571 1.20133C27.7804 1.20133 27.8862 1.293 27.9024 1.41467L29.7843 15.3613C29.7954 15.449 29.7573 15.5123 29.7344 15.5423Z" fill="white"/>
<path d="M9.82532 7.029C9.39266 6.637 8.75177 6.36333 8.02125 6.259C7.88782 6.23966 7.75067 6.23 7.61421 6.23C7.04037 6.23 6.4763 6.39666 6.02478 6.69933C5.56079 7.01066 5.26798 7.43366 5.2016 7.89C5.16992 8.107 5.22215 8.30033 5.35323 8.44966C5.47116 8.58366 5.64874 8.674 5.85361 8.70333C5.90516 8.71066 5.9547 8.71466 6.00187 8.71466C6.41532 8.71466 6.59997 8.43566 6.77856 8.166C6.9777 7.864 7.16639 7.57866 7.66812 7.57866C7.73753 7.57866 7.81267 7.58433 7.89051 7.59533C8.4849 7.68 8.78176 8.028 8.70527 8.55C8.64024 8.99833 8.19546 9.24666 7.7254 9.509C7.19739 9.80366 6.59862 10.1377 6.49888 10.8213C6.47091 11.012 6.51 11.2107 6.60671 11.3657C6.68589 11.493 6.84089 11.6533 7.13135 11.695C7.192 11.7033 7.24962 11.708 7.30286 11.708C7.71125 11.708 7.85075 11.4597 7.98486 11.2197C8.04248 11.1167 8.10178 11.0103 8.18366 10.9227C8.29722 10.7997 8.5277 10.6823 8.79423 10.5467C9.43108 10.2227 10.3035 9.778 10.4463 8.79866C10.5478 8.10166 10.3334 7.48966 9.82532 7.029Z" fill="white"/>
<path d="M7.0953 12.232C7.05083 12.2257 7.00601 12.222 6.96153 12.222C6.49552 12.222 6.09353 12.5663 6.02682 13.022C5.95302 13.531 6.31121 14.005 6.82574 14.0787C6.87022 14.0853 6.91537 14.088 6.95951 14.088C7.42586 14.088 7.82785 13.7443 7.89423 13.2887C7.96802 12.7797 7.60984 12.306 7.0953 12.232Z" fill="white"/>
</g>
<defs>
<clipPath id="clip0_17_73">
<rect width="31" height="19" fill="white"/>
</clipPath>
</defs>
</svg>
