<svg width="13" height="20" viewBox="0 0 13 20" fill="none" xmlns="http://www.w3.org/2000/svg">
<g clip-path="url(#clip0_47_607)">
<path fill-rule="evenodd" clip-rule="evenodd" d="M2.5 15C3.88071 15 5 16.1193 5 17.5C5 18.8807 3.88071 20 2.5 20C1.11929 20 0 18.8807 0 17.5C0 16.1193 1.11929 15 2.5 15ZM10 15C11.3807 15 12.5 16.1193 12.5 17.5C12.5 18.8807 11.3807 20 10 20C8.61929 20 7.5 18.8807 7.5 17.5C7.5 16.1193 8.61929 15 10 15ZM2.5 7.5C3.88071 7.5 5 8.61929 5 10C5 11.3807 3.88071 12.5 2.5 12.5C1.11929 12.5 0 11.3807 0 10C0 8.61929 1.11929 7.5 2.5 7.5ZM10 7.5C11.3807 7.5 12.5 8.61929 12.5 10C12.5 11.3807 11.3807 12.5 10 12.5C8.61929 12.5 7.5 11.3807 7.5 10C7.5 8.61929 8.61929 7.5 10 7.5ZM2.5 0C3.88071 0 5 1.11929 5 2.5C5 3.88071 3.88071 5 2.5 5C1.11929 5 0 3.88071 0 2.5C0 1.11929 1.11929 0 2.5 0ZM10 0C11.3807 0 12.5 1.11929 12.5 2.5C12.5 3.88071 11.3807 5 10 5C8.61929 5 7.5 3.88071 7.5 2.5C7.5 1.11929 8.61929 0 10 0Z" fill="#7A7A7A"/>
</g>
<defs>
<clipPath id="clip0_47_607">
<rect width="12.5" height="20" fill="white"/>
</clipPath>
</defs>
</svg>
