<svg width="20" height="20" viewBox="0 0 20 20" fill="none" xmlns="http://www.w3.org/2000/svg">
<g clip-path="url(#clip0_92_78)">
<path d="M9.99994 0.0612793C15.4897 0.0612793 19.9387 4.51026 19.9387 10.0001C19.9387 15.4899 15.4897 19.9388 9.99994 19.9388C4.51015 19.9388 0.0611706 15.4899 0.0611706 10.0001C0.0611706 4.51026 4.51015 0.0612793 9.99994 0.0612793ZM4.8775 10.0205C4.8775 12.8368 7.18362 15.1429 9.99994 15.1429C12.8163 15.1429 15.1224 12.8368 15.1224 10.0205L15.102 9.77557C15.0408 8.48985 14.5306 7.30618 13.6122 6.38781C13.3265 6.1021 12.8163 6.1021 12.5101 6.38781C12.3673 6.53067 12.2857 6.73475 12.2857 6.93883C12.2857 7.14291 12.3673 7.34699 12.5101 7.48985C13.4693 8.44903 13.7959 9.83679 13.3673 11.1429L13.3265 11.2654C12.8163 12.6531 11.4897 13.5919 9.99994 13.5919C8.02035 13.5919 6.42852 11.9796 6.42852 10.0205C6.42852 9.06128 6.79586 8.18373 7.44892 7.51026V8.32659C7.44892 8.75516 7.79586 9.1021 8.22443 9.1021C8.65301 9.1021 8.99994 8.75516 8.99994 8.32659V5.63271C8.99994 5.20414 8.65301 4.8572 8.22443 4.8572H5.65301C5.22443 4.8572 4.8775 5.20414 4.8775 5.63271C4.8775 6.06128 5.22443 6.40822 5.65301 6.40822H6.36729C5.40811 7.3674 4.8775 8.65312 4.8775 10.0205Z" fill="#DCDCDC"/>
</g>
<defs>
<clipPath id="clip0_92_78">
<rect width="20" height="20" fill="white" transform="matrix(-1 0 0 1 20 0)"/>
</clipPath>
</defs>
</svg>
