<svg width="36" height="6" viewBox="0 0 36 6" fill="none" xmlns="http://www.w3.org/2000/svg">
<path d="M35.7617 4.35254L32.3618 0.352539C32.2651 0.246831 32.1474 0.162415 32.0162 0.104662C31.8851 0.0469093 31.7434 0.017086 31.6001 0.017086C31.4568 0.017086 31.3151 0.0469093 31.1839 0.104662C31.0528 0.162415 30.9351 0.246831 30.8384 0.352539L28.2001 3.45642L25.5615 0.352539C25.4648 0.246831 25.3471 0.162416 25.2159 0.104664C25.0848 0.0469113 24.9431 0.017086 24.7998 0.017086C24.6565 0.017086 24.5148 0.0469113 24.3836 0.104664C24.2525 0.162416 24.1348 0.246831 24.0381 0.352539L21.3999 3.45636L18.7617 0.352539C18.665 0.246831 18.5473 0.162415 18.4161 0.104662C18.285 0.0469093 18.1433 0.017086 18 0.017086C17.8567 0.017086 17.715 0.0469093 17.5838 0.104662C17.4527 0.162415 17.335 0.246831 17.2383 0.352539L14.6001 3.45636L11.9619 0.352539C11.8681 0.242047 11.7514 0.153285 11.6199 0.0924091C11.4883 0.0315329 11.3451 0 11.2002 0C11.0552 0 10.912 0.0315329 10.7805 0.0924091C10.649 0.153285 10.5323 0.242047 10.4385 0.352539L7.79986 3.45642L5.16161 0.352539C5.06487 0.246831 4.94718 0.162415 4.81605 0.104662C4.68491 0.0469093 4.54318 0.017086 4.39989 0.017086C4.2566 0.017086 4.11487 0.0469093 3.98373 0.104662C3.85259 0.162415 3.73491 0.246831 3.63817 0.352539L0.238268 4.35254C0.0665509 4.55456 -0.0178807 4.81652 0.00354723 5.08079C0.0249751 5.34507 0.150507 5.59 0.352528 5.76172C0.554549 5.93344 0.816509 6.01787 1.08078 5.99644C1.34505 5.97501 1.58999 5.84948 1.76171 5.64746L4.39989 2.54395L7.03808 5.64746C7.05508 5.66746 7.07976 5.67432 7.09789 5.69263C7.11895 5.71405 7.12902 5.74194 7.15233 5.76172C7.19646 5.79126 7.24299 5.81705 7.29143 5.83881C7.40579 5.92181 7.54215 5.96912 7.68334 5.97481C7.72179 5.98549 7.76084 5.99389 7.80028 5.99996C7.81444 5.99996 7.82805 5.99325 7.84221 5.99264C7.89022 5.98786 7.93782 5.97956 7.98461 5.96779C8.05617 5.95625 8.12619 5.93666 8.19335 5.90938C8.24149 5.88643 8.28766 5.85956 8.33141 5.82906C8.37156 5.80936 8.41028 5.78684 8.44726 5.76168C8.46874 5.74343 8.4779 5.71761 8.49743 5.69802C8.51714 5.67831 8.54314 5.66909 8.56151 5.64742L11.2002 2.54391L13.8384 5.64742C13.8554 5.66742 13.8801 5.67428 13.8982 5.69259C13.9192 5.71401 13.9293 5.7419 13.9526 5.76168C13.9967 5.79116 14.0432 5.81689 14.0915 5.83858C14.2059 5.92165 14.3422 5.96903 14.4834 5.97475C14.522 5.98548 14.5611 5.9939 14.6006 5.99996C14.6147 5.99996 14.6284 5.99325 14.6426 5.99264C14.8183 5.98755 14.9885 5.93059 15.1319 5.82894C15.172 5.80927 15.2106 5.7868 15.2476 5.76168C15.269 5.74343 15.2782 5.71761 15.2977 5.69802C15.3175 5.67831 15.3434 5.66909 15.3618 5.64742L18 2.54395L20.6382 5.64746C20.6552 5.66746 20.6799 5.67432 20.698 5.69263C20.719 5.71405 20.7291 5.74194 20.7524 5.76172C20.803 5.79811 20.8569 5.82949 20.9136 5.85541C20.9484 5.87878 20.9846 5.89988 21.0221 5.91858C21.1414 5.97012 21.2695 5.99779 21.3994 6C21.5293 5.99779 21.6584 5.97012 21.7776 5.91858C21.8152 5.89988 21.8514 5.87878 21.8862 5.85541C21.9428 5.82949 21.9968 5.79811 22.0473 5.76172C22.0707 5.74194 22.0807 5.71405 22.1018 5.69263C22.1199 5.67432 22.1446 5.66742 22.1616 5.64746L24.7998 2.54395L27.4385 5.64746C27.4568 5.66913 27.4828 5.67835 27.5025 5.698C27.5222 5.71765 27.5312 5.74347 27.5527 5.76172C27.5857 5.7828 27.6199 5.80178 27.6553 5.81854C27.8148 5.93072 28.0051 5.99092 28.2002 5.99092C28.3952 5.99092 28.5855 5.93072 28.745 5.81854C28.7804 5.80178 28.8147 5.7828 28.8476 5.76172C28.8691 5.74347 28.8783 5.71765 28.8979 5.698C28.9174 5.67835 28.9435 5.66913 28.9619 5.64746L31.6 2.54395L34.2382 5.64746C34.3233 5.74749 34.4272 5.82979 34.544 5.88967C34.6608 5.94955 34.7883 5.98583 34.9192 5.99644C35.05 6.00705 35.1817 5.99178 35.3066 5.95151C35.4316 5.91124 35.5474 5.84675 35.6474 5.76172C35.7474 5.67669 35.8297 5.5728 35.8896 5.45597C35.9495 5.33913 35.9858 5.21165 35.9964 5.08079C36.007 4.94994 35.9917 4.81828 35.9515 4.69332C35.9112 4.56837 35.8467 4.45257 35.7617 4.35254Z" fill="#1E1E1E"/>
</svg>
