<svg width="32" height="26" viewBox="0 0 32 26" fill="none" xmlns="http://www.w3.org/2000/svg">
<g clip-path="url(#clip0_97_48)">
<path d="M5.13428 23.4326V25.3704C5.13477 25.4398 5.15175 25.5081 5.1838 25.5695C5.21585 25.631 5.26204 25.6838 5.31851 25.7236C5.37497 25.7633 5.44007 25.7889 5.50836 25.7982C5.57665 25.8074 5.64614 25.8 5.71102 25.7767C8.88051 24.816 12.178 24.3529 15.4875 24.4036C19.5207 24.4036 23.1505 24.9967 25.7479 25.9514C25.8128 25.9747 25.8823 25.9821 25.9506 25.9728C26.0189 25.9636 26.084 25.938 26.1404 25.8983C26.1969 25.8585 26.2431 25.8057 26.2751 25.7442C26.3072 25.6828 26.3242 25.6145 26.3247 25.5451V23.4326C23.5942 22.3967 19.7465 21.8076 15.7295 21.8076C11.7124 21.8076 7.86878 22.3967 5.13428 23.4326Z" fill="#DDDDDD"/>
<path d="M20.4039 14.1618L15.9674 4.78962L15.7295 4.27368L15.4875 4.78962L10.6194 15.084L2.82324 8.21837L4.96487 21.6246C7.86876 20.6049 11.6559 20.0524 15.7214 20.0524C19.7868 20.0524 23.57 20.6049 26.4739 21.6246L28.6236 8.21837L20.8435 15.084L20.4039 14.1618Z" fill="#DDDDDD"/>
<path d="M15.7295 3.72942C16.7452 3.72942 17.5687 2.90002 17.5687 1.87691C17.5687 0.853807 16.7452 0.0244141 15.7295 0.0244141C14.7138 0.0244141 13.8904 0.853807 13.8904 1.87691C13.8904 2.90002 14.7138 3.72942 15.7295 3.72942Z" fill="#DDDDDD"/>
<path d="M3.38373 5.94761C3.38452 5.64998 3.29758 5.3588 3.13391 5.111C2.97025 4.86319 2.73722 4.6699 2.46438 4.55563C2.19154 4.44136 1.89116 4.41125 1.60131 4.46911C1.31146 4.52698 1.04519 4.67022 0.836249 4.88068C0.627308 5.09115 0.4851 5.35935 0.427648 5.6513C0.370197 5.94326 0.400089 6.24582 0.513536 6.52065C0.626982 6.79547 0.818877 7.03019 1.0649 7.19505C1.31092 7.3599 1.59999 7.44748 1.89548 7.44667C2.29019 7.44667 2.66873 7.28874 2.94783 7.00761C3.22693 6.72648 3.38373 6.34519 3.38373 5.94761Z" fill="#DDDDDD"/>
<path d="M29.5633 7.45059C30.3875 7.45059 31.0556 6.77761 31.0556 5.94746C31.0556 5.11731 30.3875 4.44434 29.5633 4.44434C28.7392 4.44434 28.071 5.11731 28.071 5.94746C28.071 6.77761 28.7392 7.45059 29.5633 7.45059Z" fill="#DDDDDD"/>
</g>
<defs>
<clipPath id="clip0_97_48">
<rect width="31.0556" height="26" fill="white"/>
</clipPath>
</defs>
</svg>
