<svg width="76" height="81" viewBox="0 0 76 81" fill="none" xmlns="http://www.w3.org/2000/svg">
<path d="M33.558 37.3169L36.9436 47.0812L47.442 43.683L44.0564 33.9187L33.558 37.3169Z" fill="#C4AD2A"/>
<path d="M33.558 37.3169L36.9436 47.0812L47.442 43.683L44.0564 33.9187L33.558 37.3169Z" fill="#C4AD2A"/>
<path d="M76.5134 30.0649C68.407 3.96769 56.7063 -2.11996 29.6979 5.69527C2.68947 13.5105 -3.61967 24.8442 4.48666 50.935C12.593 77.0259 24.2937 83.1136 51.3148 75.2857C78.3359 67.4578 84.6197 56.1557 76.5134 30.0649ZM62.851 46.9989L57.7885 48.6443L59.554 53.7068C59.7258 54.2065 59.7944 54.7359 59.7556 55.2629C59.7168 55.79 59.5714 56.3036 59.3282 56.7728C59.085 57.242 58.7491 57.6569 58.3409 57.9925C57.9326 58.328 57.4605 58.5772 56.9531 58.725C56.5018 58.871 56.0289 58.9395 55.5546 58.9275C54.7298 58.9148 53.9283 58.6512 53.2568 58.172C52.5854 57.6927 52.0757 57.0203 51.7957 56.2443L50.0302 51.1818L39.5318 54.5484L41.2974 59.6109C41.4638 60.1063 41.5291 60.63 41.4894 61.1511C41.4496 61.6722 41.3057 62.18 41.0661 62.6444C40.8265 63.1089 40.4961 63.5205 40.0945 63.8549C39.6929 64.1893 39.2283 64.4396 38.7281 64.5911C38.2768 64.7372 37.8039 64.8057 37.3296 64.7936C36.5023 64.7893 35.6961 64.5324 35.0187 64.0575C34.3414 63.5825 33.8251 62.9121 33.5391 62.1358L31.7735 57.0733L26.711 58.7186C26.2596 58.8646 25.7868 58.9331 25.3125 58.9211C24.4876 58.9084 23.6862 58.6449 23.0147 58.1656C22.3433 57.6863 21.8336 57.014 21.5536 56.238C21.3872 55.7426 21.3219 55.2189 21.3616 54.6978C21.4013 54.1767 21.5452 53.6689 21.7848 53.2045C22.0244 52.74 22.3548 52.3284 22.7564 51.994C23.158 51.6596 23.6227 51.4093 24.1228 51.2578L29.1853 49.6125L25.8314 39.8165L20.7689 41.4618C20.3176 41.6079 19.8447 41.6764 19.3704 41.6643C18.5455 41.6516 17.7441 41.3881 17.0726 40.9088C16.4012 40.4295 15.8915 39.7572 15.6115 38.9812C15.4451 38.4858 15.3798 37.9621 15.4195 37.441C15.4592 36.9199 15.6031 36.4121 15.8427 35.9477C16.0823 35.4832 16.4127 35.0716 16.8143 34.7372C17.2159 34.4028 17.6806 34.1525 18.1807 34.001L23.2432 32.3557L21.4777 27.2932C21.3053 26.7955 21.2354 26.2681 21.2722 25.7427C21.3089 25.2173 21.4516 24.7047 21.6916 24.2359C21.9317 23.7671 22.2641 23.3517 22.6688 23.0147C23.0736 22.6777 23.5423 22.4261 24.0469 22.275C25.0603 21.9363 26.1659 22.0059 27.1288 22.4691C28.0918 22.9322 28.8363 23.7524 29.2043 24.7556L30.9699 29.8181L41.4745 26.4199L39.709 21.3574C39.5426 20.862 39.4773 20.3382 39.517 19.8172C39.5567 19.2961 39.7006 18.7883 39.9402 18.3238C40.1798 17.8594 40.5102 17.4478 40.9118 17.1134C41.3134 16.779 41.7781 16.5287 42.2782 16.3771C43.2957 16.0311 44.4083 16.0978 45.3772 16.5627C46.3462 17.0277 47.0942 17.8539 47.461 18.8641L49.2265 23.9266L54.289 22.2813C55.3024 21.9426 56.408 22.0122 57.3709 22.4754C58.3339 22.9385 59.0784 23.7588 59.4464 24.7619C59.6129 25.2573 59.6781 25.781 59.6384 26.3021C59.5987 26.8232 59.4548 27.331 59.2152 27.7955C58.9756 28.2599 58.6452 28.6715 58.2436 29.0059C57.842 29.3403 57.3773 29.5906 56.8772 29.7421L51.8147 31.3875L55.2002 41.1518L60.2627 39.5064C61.2762 39.1678 62.3817 39.2374 63.3447 39.7005C64.3076 40.1637 65.0521 40.9839 65.4202 41.9871C65.5916 42.4844 65.6607 43.0112 65.6234 43.5359C65.5862 44.0605 65.4433 44.5723 65.2033 45.0404C64.9634 45.5084 64.6313 45.9232 64.2271 46.2598C63.8228 46.5964 63.3548 46.8478 62.851 46.9989Z" fill="#C4AD2A"/>
</svg>
