<svg width="24" height="24" viewBox="0 0 24 24" fill="none" xmlns="http://www.w3.org/2000/svg">
<g clip-path="url(#clip0_43_235)">
<path d="M17.6909 13.7783C11.8636 12.4624 10.961 11.5598 9.64507 5.73249C9.58478 5.46615 9.34771 5.27649 9.07376 5.27649C8.7998 5.27649 8.56273 5.46615 8.50244 5.73249C7.18595 11.5598 6.2839 12.4624 0.456585 13.7783C0.189658 13.8392 0 14.0757 0 14.3497C0 14.6236 0.189658 14.8601 0.456585 14.921C6.2839 16.2375 7.18595 17.1401 8.50244 22.9668C8.56273 23.2332 8.7998 23.4228 9.07376 23.4228C9.34771 23.4228 9.58478 23.2332 9.64507 22.9668C10.9616 17.1401 11.8636 16.2375 17.6909 14.921C17.9579 14.8601 18.1469 14.6236 18.1469 14.3497C18.1469 14.0757 17.9573 13.8392 17.6909 13.7783Z" fill="#BD71FF"/>
<path d="M22.9592 4.7058C19.8614 4.00629 19.4265 3.57136 18.727 0.474188C18.6661 0.207262 18.4296 0.0181885 18.1557 0.0181885C17.8817 0.0181885 17.6452 0.207262 17.5843 0.474188C16.8848 3.57136 16.4499 4.00629 13.3527 4.7058C13.0858 4.76668 12.8967 5.00316 12.8967 5.27712C12.8967 5.55107 13.0858 5.78755 13.3527 5.84843C16.4499 6.54795 16.8848 6.98287 17.5843 10.0806C17.6452 10.347 17.8817 10.5366 18.1557 10.5366C18.4296 10.5366 18.6661 10.347 18.727 10.0806C19.4265 6.98287 19.8614 6.54795 22.9592 5.84843C23.2255 5.78755 23.4152 5.55107 23.4152 5.27712C23.4152 5.00316 23.2255 4.76668 22.9592 4.7058Z" fill="#BD71FF"/>
</g>
<defs>
<clipPath id="clip0_43_235">
<rect width="23.4152" height="24" fill="white"/>
</clipPath>
</defs>
</svg>
