<svg width="33" height="20" viewBox="0 0 33 20" fill="none" xmlns="http://www.w3.org/2000/svg">
<g clip-path="url(#clip0_76_202)">
<path d="M9.81999 9.11588L8.88399 6.77588C8.04799 6.94388 7.19599 7.07988 6.35999 7.24788C6.67199 8.04788 6.97999 8.80788 7.29199 9.59188C8.13199 9.41988 8.97999 9.28388 9.81999 9.11588Z" fill="black"/>
<path d="M25.508 9.59994C25.82 8.79994 26.128 8.03594 26.44 7.25594C25.604 7.08794 24.752 6.95194 23.916 6.78394L22.98 9.12394C23.82 9.28394 24.668 9.41994 25.508 9.59994Z" fill="black"/>
<path d="M0.427986 7.04411L3.22799 14.0681C3.25132 14.1255 3.28768 14.1767 3.33419 14.2177C3.3807 14.2586 3.43609 14.2882 3.49599 14.3041H3.58799C3.68384 14.303 3.7761 14.2675 3.84799 14.2041C5.44799 12.8081 7.44799 12.4481 9.55599 12.0681C11.516 11.7161 13.556 11.3481 15.216 10.0681L16 12.0001L13.128 19.1561C13.093 19.2518 13.0959 19.3573 13.136 19.4509C13.1762 19.5446 13.2506 19.6194 13.344 19.6601C13.3896 19.679 13.4386 19.6885 13.488 19.6881C13.5658 19.6873 13.6417 19.6637 13.7064 19.6204C13.771 19.577 13.8216 19.5158 13.852 19.4441L16.4 13.0441L18.948 19.4441C18.9783 19.5158 19.0289 19.577 19.0936 19.6204C19.1583 19.6637 19.2342 19.6873 19.312 19.6881C19.3614 19.6885 19.4104 19.679 19.456 19.6601C19.5494 19.6194 19.6238 19.5446 19.6639 19.4509C19.7041 19.3573 19.707 19.2518 19.672 19.1561L16.82 12.0001L17.6 10.1001C19.28 11.3601 21.3 11.7281 23.26 12.1001C25.376 12.4801 27.376 12.8401 28.968 14.2361C29.0399 14.2995 29.1321 14.335 29.228 14.3361H29.32C29.3799 14.3202 29.4353 14.2906 29.4818 14.2497C29.5283 14.2087 29.5647 14.1575 29.588 14.1001L32.388 7.07611C32.4171 7.00083 32.4227 6.91853 32.4041 6.84C32.3856 6.76148 32.3437 6.6904 32.284 6.63611C30.524 5.09611 28.324 4.70011 26.196 4.31611C24.172 3.95211 22.256 3.60411 20.7 2.35211L20.9 1.84811C21.029 1.82899 21.1507 1.77648 21.2532 1.69579C21.3556 1.6151 21.4352 1.50904 21.484 1.38811C21.5226 1.29408 21.5423 1.19337 21.542 1.09173C21.5417 0.990083 21.5214 0.889496 21.4822 0.795708C21.443 0.701921 21.3857 0.616771 21.3136 0.545119C21.2415 0.473467 21.156 0.416716 21.062 0.378107C20.968 0.339499 20.8672 0.319789 20.7656 0.320101C20.664 0.320414 20.5634 0.340743 20.4696 0.379929C20.3758 0.419116 20.2906 0.476391 20.219 0.548486C20.1473 0.62058 20.0906 0.706081 20.052 0.800108C20.0134 0.891915 19.9935 0.99051 19.9935 1.09011C19.9935 1.18971 20.0134 1.2883 20.052 1.38011C20.0768 1.43744 20.1091 1.49124 20.148 1.54011L16.4 10.9521L12.644 1.53211C12.6806 1.48309 12.7127 1.43088 12.74 1.37611C12.7785 1.28357 12.7983 1.18433 12.7983 1.08411C12.7983 0.98388 12.7785 0.884642 12.74 0.792107C12.7082 0.692182 12.6561 0.599881 12.587 0.520951C12.518 0.442021 12.4334 0.378154 12.3386 0.333325C12.2438 0.288497 12.1408 0.263668 12.036 0.260384C11.9311 0.257101 11.8268 0.275433 11.7293 0.31424C11.6319 0.353046 11.5435 0.411495 11.4696 0.485948C11.3958 0.560401 11.338 0.649263 11.3 0.747C11.262 0.844737 11.2445 0.949255 11.2486 1.05405C11.2527 1.15884 11.2784 1.26166 11.324 1.35611C11.4005 1.53618 11.5439 1.67956 11.724 1.75611C11.7819 1.78001 11.8423 1.79744 11.904 1.80811L12.1 2.30411C10.544 3.55611 8.62799 3.90411 6.60399 4.26811C4.47599 4.66811 2.27599 5.04811 0.515986 6.58811C0.455691 6.64551 0.414806 6.72029 0.399032 6.80203C0.383257 6.88377 0.393379 6.96839 0.427986 7.04411ZM18.664 7.37611C19.2365 7.81466 19.8681 8.17017 20.54 8.43211L21.472 6.09211C20.8009 5.83101 20.1705 5.47542 19.6 5.03611L20.4 3.08011C20.979 3.50683 21.6127 3.85393 22.284 4.11211L21.484 6.11211C22.2776 6.4095 23.0953 6.63834 23.928 6.79611C24.192 6.13611 24.452 5.47611 24.728 4.82011C25.176 4.91211 26.86 5.22011 27.252 5.29611C26.988 5.95211 26.728 6.61211 26.452 7.26811C27.2853 7.42347 28.1031 7.65236 28.896 7.95211L29.696 5.97211C30.3705 6.22954 31.0017 6.58833 31.568 7.03611L30.768 9.00811C30.1974 8.5688 29.5671 8.21321 28.896 7.95211L27.96 10.2921C28.6312 10.5556 29.2625 10.911 29.836 11.3481L29.036 13.3081C28.4575 12.8806 27.8237 12.5334 27.152 12.2761L27.952 10.2761C27.1604 9.97769 26.3438 9.75013 25.512 9.59611C25.248 10.2521 24.984 10.9121 24.712 11.5681C24.264 11.4761 22.576 11.1681 22.188 11.0921L22.988 9.12011C22.1556 8.96662 21.3389 8.73767 20.548 8.43611L19.748 10.4361C19.0744 10.1795 18.4443 9.82063 17.88 9.37211L18.664 7.37611ZM3.12799 5.95211L3.92799 7.93211C4.72085 7.63236 5.53871 7.40347 6.37199 7.24811C6.10799 6.59211 5.84799 5.93211 5.57199 5.27611C5.97199 5.20011 7.64799 4.87611 8.09599 4.80011C8.35999 5.45611 8.61999 6.11611 8.89599 6.77611C9.72869 6.61833 10.5464 6.3895 11.34 6.09211L10.54 4.09211C11.2113 3.83393 11.845 3.48683 12.424 3.06011L13.224 5.02011C12.6534 5.45942 12.0231 5.81501 11.352 6.07611L12.284 8.41611C12.9559 8.15417 13.5875 7.79866 14.16 7.36011L14.96 9.33211C14.3837 9.78564 13.7399 10.146 13.052 10.4001L12.252 8.40011C11.4611 8.70167 10.6444 8.93062 9.81199 9.08411L10.612 11.0561C10.212 11.1321 8.53599 11.4561 8.08799 11.5321C7.82799 10.8761 7.56399 10.2161 7.28799 9.56011C6.45613 9.71413 5.6396 9.94169 4.84799 10.2401L5.64799 12.2401C4.97626 12.4974 4.3425 12.8446 3.76399 13.2721L2.96399 11.3121C3.53745 10.875 4.16881 10.5196 4.83999 10.2561L3.90399 7.91611C3.2329 8.17721 2.60254 8.5328 2.03199 8.97211L1.23199 7.00011C1.80666 6.55584 2.4461 6.2024 3.12799 5.95211Z" fill="black"/>
</g>
<defs>
<clipPath id="clip0_76_202">
<rect width="32.8" height="20" fill="white"/>
</clipPath>
</defs>
</svg>
