<svg width="18" height="18" viewBox="0 0 18 18" fill="none" xmlns="http://www.w3.org/2000/svg">
<g clip-path="url(#clip0_43_173)">
<path d="M9.01013 0.0961914C4.0998 0.0961914 0.109863 4.08613 0.109863 8.99646C0.109863 13.9068 4.0998 17.8967 9.01013 17.8967C13.9205 17.8967 17.9104 13.9068 17.9104 8.99646C17.9111 4.08613 13.9212 0.0961914 9.01013 0.0961914ZM14.1594 6.38407L7.66619 13.177C7.51624 13.327 7.31176 13.416 7.10656 13.416C6.90854 13.416 6.71768 13.3406 6.57491 13.2115L3.29469 10.2239C2.98116 9.9304 2.96035 9.43966 3.24016 9.11895C3.53361 8.79824 4.03153 8.77814 4.35153 9.06442L7.06567 11.5332L13.02 5.29911C13.3199 4.98558 13.8178 4.9784 14.1314 5.27831C14.4463 5.57248 14.46 6.07054 14.1594 6.38407Z" fill="white"/>
</g>
<defs>
<clipPath id="clip0_43_173">
<rect width="18" height="18" fill="white"/>
</clipPath>
</defs>
</svg>
