<svg width="83" height="80" viewBox="0 0 83 80" fill="none" xmlns="http://www.w3.org/2000/svg">
<g clip-path="url(#clip0_43_116)">
<path d="M82.1638 36.4919C79.8027 34.0164 76.0879 33.7519 73.4051 37.4095C72.5413 38.54 71.9101 39.5126 71.5115 40.3272C70.1578 42.5382 71.4471 45.5378 74.0401 45.9522C75.7272 46.2341 75.8939 47.4806 75.2214 49.0931C74.8395 50.0323 74.8482 51.0461 75.3722 52.118C75.7215 52.8325 76.4114 53.2477 77.1593 53.1477L85.2368 52.8287C86.7492 52.7533 89.6733 49.9516 89.4559 46.4281C89.3638 44.7911 88.5239 43.254 87.3433 42.0162C83.2031 37.6217 84.3669 38.7348 82.1638 36.4919ZM48.1377 26.8322L55.0259 24.2616L55.1505 24.2449L54.5228 12.9099L49.2868 11.707C49.1622 11.7237 49.0375 11.7403 49.0375 11.7403L42.1826 14.5602L42.0538 24.9814L42.1784 24.9647L48.013 26.8489C47.8884 26.8655 48.013 26.8489 48.1377 26.8322ZM35.8415 13.632L41.2681 13.4138L41.3927 13.3971C41.75 13.2224 48.3722 10.5605 48.7295 10.3859L48.878 7.70159C44.5813 6.88057 41.0745 7.22268 37.7351 10.7143C37.3945 11.0136 37.0372 11.1883 36.68 11.3629C35.9487 11.5876 35.2175 11.8123 34.503 12.1616L35.4676 13.682C35.4676 13.682 35.7169 13.6487 35.8415 13.632ZM38.4318 28.2571C38.3072 28.2738 38.3072 28.2738 38.1825 28.2904L34.7837 28.4912L34.0881 34.6743C36.3158 36.1527 38.7262 37.0991 41.3358 37.6383L38.4318 28.2571ZM55.1206 11.6881L62.2756 11.1118C62.4002 11.0952 62.4002 11.0952 62.5249 11.0785L62.8314 8.62683C62.5654 8.53552 62.2994 8.44421 62.1581 8.33623C56.9381 5.3549 53.548 6.56954 50.0165 7.67621L49.9013 10.6098C50.026 10.5931 54.996 11.7047 55.1206 11.6881ZM31.3587 25.6504L33.8691 27.3448C34.0104 27.4527 34.0104 27.4527 34.1351 27.4361L38.0325 27.1686C38.4064 27.1186 39.8601 25.6554 40.2007 25.3561C40.3254 25.3394 40.3087 25.2148 40.4334 25.1981L40.5622 14.7769L35.6343 14.9285C35.5096 14.9451 35.385 14.9618 35.277 15.1031L28.9635 21.0226C28.8555 21.1639 28.7642 21.4298 28.9055 21.5378L30.9514 25.4512C31.342 25.5258 31.3587 25.6504 31.3587 25.6504ZM67.529 14.3425C68.1855 14.5084 69.7647 14.9316 71.6598 15.8201L72.5895 13.285C70.5357 10.2609 67.668 8.74126 64.1112 8.70942L63.73 11.5517L67.3876 14.2345C67.529 14.3425 67.529 14.3425 67.529 14.3425ZM76.6994 25.0425C76.9487 25.0092 77.04 24.7432 77.0067 24.4939C75.9573 18.5441 70.214 16.394 67.9783 15.8049L69.3698 25.2615C69.3698 25.2615 69.4945 25.2448 69.5112 25.3694C71.6556 26.2245 74.5225 25.8411 76.6994 25.0425ZM58.6581 25.8059L64.8825 25.8616C65.0072 25.8449 65.1318 25.8282 65.1485 25.9529C65.2898 26.0609 66.287 25.9275 67.9654 25.1955L66.5071 15.2404L62.5669 12.3416C62.4256 12.2337 62.301 12.2503 62.301 12.2503L55.5366 12.9012L56.1644 24.2362C56.289 24.2195 56.3057 24.3442 56.4304 24.3275L58.2508 25.6066C58.5334 25.8225 58.6581 25.8059 58.6581 25.8059Z" fill="#3FBE26"/>
<path d="M78.2532 24.3272C78.3699 25.1997 77.9546 25.8896 77.1154 26.2556C76.5089 26.4636 75.653 26.7049 74.6725 26.9629L75.0226 29.5805C77.7307 27.0614 81.6607 25.1402 85.2342 25.2967C85.4835 25.2634 85.5581 24.8727 85.2922 24.7814C83.0065 23.8183 80.2809 24.3097 79.5823 22.8806C78.6915 19.0666 77.0283 16.1171 73.7701 14.5228C73.6454 14.5394 73.6287 14.4148 73.5041 14.4315L72.7903 16.6838C75.126 18.0209 77.5951 20.3551 78.2532 24.3272ZM64.534 27.05L59.4647 27.0936L60.5244 37.8633C63.034 37.6546 65.4769 36.9472 67.6372 36.0239L64.534 27.05ZM71.8579 33.4295C72.0905 33.2715 72.3231 33.1135 72.4144 32.8475C72.813 32.033 73.3529 31.3264 74.0174 30.6031L73.5507 27.113C72.1795 27.2963 70.5091 27.1391 69.1459 26.4333C69.0213 26.4499 68.88 26.342 68.7553 26.3586C67.4342 26.9159 66.5783 27.1573 65.9384 27.116L68.817 35.3586C70.7114 34.344 70.6781 34.0947 71.8579 33.4295ZM59.1366 37.922L58.1682 26.8864C58.0269 26.7784 57.9022 26.795 57.7609 26.6871L55.9405 25.408C55.7992 25.3 55.6745 25.3167 55.5499 25.3334L49.1602 27.8373L50.0119 38.0004L58.1227 37.9308C58.264 38.0387 58.7626 37.9721 59.1366 37.922ZM28.2403 20.358C28.5809 20.0587 33.9805 14.8959 34.3211 14.5965L33.3232 12.8268C31.6781 13.8081 30.2077 15.1467 29.02 16.7011C28.2641 17.6904 27.0677 18.231 25.8045 18.2731C23.3695 18.0912 21.7904 17.668 22.2231 19.0058C21.1346 19.4051 20.844 20.0784 21.9912 21.0668L28.2236 20.2333L28.2403 20.358ZM27.9084 21.6711L22.7978 22.3546C22.8065 23.3685 23.7211 24.5149 24.4777 25.4288C24.777 25.7694 25.0596 25.9853 25.2343 26.3426L29.7963 25.3519L28.1164 22.2777C27.9584 22.0451 27.925 21.7958 27.9084 21.6711ZM45.0673 38.0273L48.4995 38.0758L47.6811 28.162C47.5565 28.1786 47.4318 28.1953 47.2905 28.0873L41.5806 26.1865C41.4393 26.0786 41.2066 26.2365 41.082 26.2532L39.487 27.6084L42.7569 37.8288C43.5382 37.9781 44.3027 38.0027 45.0673 38.0273ZM32.9742 33.9351L33.5205 28.5332C33.3959 28.5499 33.2546 28.4419 33.2546 28.4419L30.7442 26.7476C30.6029 26.6396 30.6029 26.6396 30.4615 26.5317L26.3815 27.3311C28.46 29.5906 30.3805 31.6176 32.5336 33.4866C32.6749 33.5945 32.8162 33.7025 32.9742 33.9351Z" fill="#3FBE26"/>
<path d="M77.3177 33.4606C79.5614 33.1605 81.5811 34.0323 83.061 35.6107L83.6596 36.2919C83.8922 36.1339 84.0002 35.9926 84.0002 35.9926C86.2931 34.1634 88.4193 31.0877 87.3547 28.8194C87.3214 28.5702 86.6402 29.1688 86.4822 28.9361C86.1662 28.4709 86.3981 26.4098 86.2234 26.0526C86.0988 26.0692 86.0988 26.0692 85.9575 25.9613C85.3842 26.4186 84.8356 26.1113 83.4645 26.2947C79.6004 26.8114 75.1805 29.8132 73.3536 33.2294C73.1543 33.6367 72.7058 34.0773 72.3652 34.3766C71.1854 35.0419 67.904 38.0183 61.2976 38.9018C60.1758 39.0519 58.9127 39.0939 57.7742 39.1193C45.2173 39.1492 38.769 40.2653 31.6364 34.3678C29.5 32.6235 27.5961 30.7212 25.185 27.8717C25.0437 27.7637 24.6198 27.4398 24.1791 26.9912C22.1681 27.1333 20.4143 26.3528 19.9396 23.7519C19.0735 19.1733 15.8812 16.1745 12.2331 16.4086C12.2331 16.4086 5.36872 16.3116 5.15427 20.4004C5.0963 20.9156 5.33764 21.7715 5.57897 22.6274L5.70362 22.6107C6.43484 22.386 7.18273 22.286 7.94728 22.3106C8.85316 22.4432 9.40176 22.7505 10.0417 22.7918C10.6816 22.8331 11.3215 22.8744 11.9281 22.6664C12.0527 22.6497 12.3187 22.741 12.3353 22.8657C12.352 22.9903 12.2607 23.2563 12.1361 23.273C11.4048 23.4976 10.6569 23.5977 9.89239 23.573C9.12783 23.5484 8.45459 23.2578 7.93932 23.1998C7.42406 23.1419 6.69285 23.3665 6.08628 23.5745C6.57691 24.3971 7.2835 24.937 8.08139 25.2109C10.1924 25.8167 11.1983 26.6972 12.4289 28.3089C16.0039 32.2715 14.4676 35.0145 18.3911 37.7886C18.8151 38.1125 19.0064 38.5944 18.8238 39.1264C18.16 41.7527 17.9948 44.3123 18.3616 47.0546C18.4616 47.8025 18.171 48.4757 17.7391 49.041C16.8419 49.9222 16.0114 51.3021 18.0478 52.2985C18.8624 52.6971 19.7516 52.705 20.6408 52.713C22.1366 52.5129 24.6295 52.1796 26.5906 51.6635C17.9963 48.1184 17.9505 37.34 26.4266 36.2065C32.285 35.423 39.3842 41.0712 42.2947 45.757C47.8046 46.162 57.1285 45.6764 66.9511 45.124C66.9511 45.124 68.4469 44.924 70.1919 44.6906C70.1919 44.6906 70.1753 44.5659 70.0506 44.5826C69.3353 43.0289 69.3512 41.2505 70.3064 39.8539C72.1666 36.687 74.0769 33.894 77.3177 33.4606ZM11.1374 19.6002C10.6554 19.7915 10.1569 19.8582 9.65826 19.9249C9.76624 19.7836 9.74957 19.6589 9.7329 19.5343C9.71623 19.4096 9.69956 19.285 9.57491 19.3017L9.46693 19.443C9.34229 19.4597 9.20097 19.3517 9.1843 19.227L9.16763 19.1024L9.04298 19.119C8.66904 19.1691 8.45308 19.4517 8.50309 19.8256C8.51976 19.9503 8.53643 20.0749 8.67775 20.1829C8.5531 20.1996 8.42845 20.2163 8.30381 20.2329C8.17916 20.2496 7.91319 20.1583 7.78854 20.175C7.78854 20.175 7.78854 20.175 7.6639 20.1916C7.52258 20.0836 7.48924 19.8343 7.58055 19.5684C8.01246 19.0031 8.74368 18.7784 9.38358 18.8197C10.2394 18.5784 11.8686 19.3756 11.1374 19.6002Z" fill="#3FBE26"/>
<path d="M26.7179 37.4363C19.1144 38.4531 20.132 47.9597 27.5957 50.641C28.6596 51.0062 29.9568 53.1165 28.7691 54.671C28.7691 54.671 28.7691 54.671 28.6611 54.8123C27.8139 56.0675 28.8285 57.9619 30.4823 57.9944C33.2912 58.1263 36.2995 57.8509 39.7229 56.8855C41.6839 56.3695 43.1043 54.657 43.2282 52.7373C43.3442 51.7068 43.0695 50.6016 42.7948 49.4965C40.6982 43.3061 32.4351 36.5448 26.7179 37.4363Z" fill="#3FBE26"/>
</g>
<defs>
<clipPath id="clip0_43_116">
<rect width="83" height="83" fill="white" transform="translate(0.865173 -3.13269) rotate(-7.61729)"/>
</clipPath>
</defs>
</svg>
