<svg width="96" height="70" viewBox="0 0 96 70" fill="none" xmlns="http://www.w3.org/2000/svg">
<g clip-path="url(#clip0_82_134)">
<path d="M28.3 17.7999V15.6999H29.2001C30 15.6999 30.6 15.0999 30.6 14.2999C30.6 13.4999 30 12.8999 29.2001 12.8999H14.2C13.4 12.8999 12.8 13.4999 12.8 14.2999C12.8 15.0999 13.4 15.6999 14.2 15.6999H15.1V17.7999C15.1 19.4999 15.8 20.9999 17.1 21.9999L19.3 23.7999L17.1 25.5999C15.8 26.5999 15.1 28.1999 15.1 29.7999V31.8999H14.2C13.4 31.8999 12.8 32.4999 12.8 33.2999C12.8 34.0999 13.4 34.6999 14.2 34.6999H29.2001C30 34.6999 30.6 34.0999 30.6 33.2999C30.6 32.4999 30 31.8999 29.2001 31.8999H28.3V29.9999C28.3 28.2999 27.6 26.7999 26.3 25.7999L24.1 23.9999L26.3 22.1999C27.6 20.9999 28.3 19.4999 28.3 17.7999ZM24.5 27.9999C25.1 28.4999 25.4 29.1999 25.4 29.9999V32.0999H18.1V29.9999C18.1 29.1999 18.4 28.4999 19 27.9999L21.7 25.7999L24.5 27.9999ZM25.4 17.7999C25.4 18.5999 25.1 19.2999 24.5 19.7999L21.8 21.9999L19.1 19.7999C18.5 19.2999 18.2 18.5999 18.2 17.7999V15.6999H25.5V17.7999H25.4Z" fill="#585858"/>
<path d="M34.4 40.5999C35 40.0999 35.1 39.2999 34.6 38.6999C34.1 38.0999 33.3 37.9999 32.7 38.4999C26 43.6999 15.7 43.0999 9.60002 37.2999C3.40002 31.7999 2.00002 21.6999 6.50002 14.6999C8.60002 11.1999 12 8.39985 15.9 7.19985C19.8 5.89985 24.1 5.89985 27.9 7.39985C31.7 8.79985 35 11.5999 37 15.0999C38 16.8999 38.7 18.7999 39.1 20.7999L39.3 22.2999L39.4 23.7999V25.6999L36.8 23.1999C36 22.3999 34.7 22.4999 33.9 23.2999C33.1 24.0999 33.2 25.3999 34 26.1999L40 31.9999C40.4 32.3999 40.9 32.5999 41.4 32.5999C41.9 32.5999 42.4 32.3999 42.8 31.9999L49 26.0999C49.8 25.2999 49.9 23.9999 49.1 23.1999C48.3 22.3999 47 22.2999 46.2 23.0999L43.6 25.5999V23.5999L43.5 21.6999L43.2 19.7999C42.7 17.3999 41.8 14.9999 40.5 12.7999C38 8.49985 33.9 5.19985 29.2 3.49985C24.5 1.79985 19.3 1.79985 14.7 3.49985C10 5.09985 6.00002 8.49985 3.50002 12.6999C1.00002 17.0999 2.20537e-05 22.1999 0.800022 26.9999C1.50002 31.7999 4.00002 36.3999 7.70002 39.5999C11.3 42.7999 16.1 44.7999 20.9 44.8999C25.7 45.1999 30.6 43.5999 34.4 40.5999Z" fill="#585858"/>
<path d="M95.3 14.5998C94.4 9.79981 89.7 7.6998 86 6.7998C86.1 7.3998 86.2 7.99981 86.2 8.69981C86.2 10.5998 85.7 12.2998 84.9 13.8998C86.7 14.3998 88.2 15.1998 88.4 15.8998C88.5 16.3998 88.4 16.6998 88.2 16.8998C86.9 18.3998 82.8 19.3998 79.7 19.3998H70.1C67 19.3998 62.9 18.3998 61.6 16.8998C61.4 16.5998 61.2 16.3998 61.4 15.8998C61.5 15.0998 63 14.3998 64.9 13.8998C64.1 12.2998 63.6 10.5998 63.6 8.69981C63.6 8.09981 63.7 7.3998 63.8 6.7998C60 7.6998 55.3 9.79981 54.5 14.5998C54 17.0998 54.6 19.4998 56.3 21.4998C58.8 24.4998 62.9 25.6998 66.1 26.1998C65.2 28.7998 63.3 34.1998 62 38.8998C58.2 38.7998 51.6 38.6998 49.1 38.6998C47.7 38.6998 46.4 39.2998 45.4 40.2998C43.1 42.6998 42 48.6998 42 58.3998L35.6 61.7998C33.6 62.8998 32.8 65.3998 33.8 67.3998C34.5 68.7998 36 69.5998 37.5 69.5998C38.2 69.5998 38.8 69.4998 39.4 69.0998L69 53.6998C72.7 52.0998 74.9 49.7998 75.7 47.4998C77.3 43.4998 81.3 30.9998 82.7 26.2998C85.9 25.8998 90.9 24.7998 93.6 21.3998C95.2 19.4998 95.8 17.1998 95.3 14.5998ZM50.3 54.0998C50.4 51.1998 50.7 48.4998 51.1 46.9998C54.9 47.0998 61.3 47.1998 63.5 47.1998L50.3 54.0998Z" fill="#585858"/>
<path d="M74.9 16.9999C79.484 16.9999 83.2 13.2839 83.2 8.6999C83.2 4.11594 79.484 0.399902 74.9 0.399902C70.3161 0.399902 66.6 4.11594 66.6 8.6999C66.6 13.2839 70.3161 16.9999 74.9 16.9999Z" fill="#585858"/>
</g>
<defs>
<clipPath id="clip0_82_134">
<rect width="96" height="70" fill="white"/>
</clipPath>
</defs>
</svg>
